<svg height="482pt" viewBox="0 -36 482 482" width="482pt" xmlns="http://www.w3.org/2000/svg"><path d="m67.546875 121.175781h-20v67.554688c6.753906-3.675781 13.417969-7.507813 20-11.492188zm0 0" fill="#d4e1f4"/><path d="m101.042969 12h-20c-18.496094.019531-33.480469 15.007812-33.5 33.5v14.300781h20v-14.300781c.019531-18.492188 15.003906-33.480469 33.5-33.5zm0 0" fill="#d4e1f4"/><path d="m47.546875 71.804688h20v37.371093h-20zm0 0" fill="#d4e1f4"/><path d="m436.5 0h-355.457031c-25.117188.0273438-45.472657 20.382812-45.5 45.5v153.234375h12v-77.558594h422.457031v134.96875c-.019531 18.496094-15.007812 33.480469-33.5 33.5h-214.546875v12h214.546875c25.117188-.027343 45.472656-20.382812 45.5-45.5v-210.644531c-.027344-25.117188-20.382812-45.4726562-45.5-45.5zm-388.953125 109.175781v-37.371093h422.453125v37.371093zm422.453125-49.371093h-422.453125v-14.304688c.019531-18.492188 15.003906-33.480469 33.5-33.5h355.453125c18.492188.019531 33.480469 15.007812 33.5 33.5zm0 0" fill="#0635c9"/><path d="m369.613281 251.640625c19.398438 10.359375 43.414063 5.582031 57.363281-11.417969 13.949219-17 13.949219-41.488281 0-58.488281-13.949218-17-37.964843-21.78125-57.363281-11.417969-19.394531-10.363281-43.410156-5.582031-57.359375 11.417969-13.949218 17-13.949218 41.488281 0 58.488281 13.949219 17 37.964844 21.777344 57.359375 11.417969zm55.828125-40.664063c.011719 10.941407-5.230468 21.226563-14.09375 27.640626-8.867187 6.410156-20.273437 8.175781-30.660156 4.742187 17.742188-17.941406 17.742188-46.820313 0-64.761719 10.386719-3.4375 21.792969-1.671875 30.660156 4.742188 8.863282 6.414062 14.105469 16.695312 14.089844 27.636718zm-111.652344 0c0-18.832031 15.265626-34.097656 34.101563-34.097656 18.832031 0 34.097656 15.265625 34.097656 34.097656 0 18.835938-15.265625 34.101563-34.097656 34.101563-18.824219-.023437-34.078125-15.277344-34.101563-34.101563zm0 0" fill="#0635c9"/><g fill="#1ae5be"><path d="m225.601562 210.046875-.710937-.308594c-37.875-16.292969-73.683594-37.027343-106.671875-61.761719-2.132812-1.597656-5.066406-1.597656-7.199219 0-32.992187 24.734376-68.796875 45.46875-106.671875 61.761719l-.714844.308594c-2.203124.945313-3.632812 3.113281-3.632812 5.511719v63.007812c0 40.351563 19.300781 75.808594 55.820312 102.539063 16.804688 12.269531 35.441407 21.804687 55.226563 28.25 1.082031.316406 2.230469.320312 3.3125.015625 20.371094-6.402344 39.625-15.917969 57.082031-28.210938 37.800782-26.722656 57.785156-62.199218 57.785156-102.59375v-63.007812c0-2.398438-1.425781-4.566406-3.625-5.511719zm-8.371093 68.519531c0 28.609375-10.699219 53.828125-31.855469 75.253906v-2.511718c0-3.3125-2.683594-6-6-6-3.3125 0-6 2.6875-6 6v6.640625c0 1.867187.871094 3.625 2.351562 4.757812-3.4375 2.898438-7.078124 5.71875-10.929687 8.460938-15.984375 11.191406-33.511719 19.996093-52.03125 26.144531-17.804687-6.121094-34.605469-14.847656-49.851563-25.890625-3.617187-2.644531-7.035156-5.367187-10.257812-8.164063 1.96875-1.035156 3.203125-3.078124 3.203125-5.308593v-6.640625c0-3.3125-2.683594-6-6-6-3.3125 0-6 2.6875-6 6v3.691406c-21.160156-21.667969-31.859375-47.285156-31.859375-76.433594v-59.066406c36.300781-15.875 70.714844-35.746094 102.613281-59.246094 31.898438 23.5 66.3125 43.371094 102.613281 59.246094zm0 0"/><path d="m114.613281 345.308594c-3.3125 0-6 2.6875-6 6v6.640625c0 3.316406 2.6875 6 6 6s6-2.683594 6-6v-6.640625c0-3.3125-2.6875-6-6-6zm0 0"/><path d="m136.199219 345.308594c-3.3125 0-6 2.6875-6 6v6.640625c0 3.316406 2.6875 6 6 6 3.316406 0 6-2.683594 6-6v-6.640625c0-3.3125-2.683594-6-6-6zm0 0"/><path d="m151.785156 351.308594v6.640625c0 3.316406 2.6875 6 6 6s6-2.683594 6-6v-6.640625c0-3.3125-2.6875-6-6-6s-6 2.6875-6 6zm0 0"/><path d="m93.027344 345.308594c-3.3125 0-6 2.6875-6 6v6.640625c0 3.316406 2.6875 6 6 6s6-2.683594 6-6v-6.640625c0-3.3125-2.6875-6-6-6zm0 0"/><path d="m71.441406 345.308594c-3.3125 0-6 2.6875-6 6v6.640625c0 3.316406 2.6875 6 6 6s6-2.683594 6-6v-6.640625c0-3.3125-2.6875-6-6-6zm0 0"/><path d="m84.945312 270.96875c-1.511718-1.550781-3.734374-2.167969-5.828124-1.617188-2.089844.550782-3.726563 2.183594-4.277344 4.273438-.550782 2.09375.070312 4.320312 1.621094 5.828125l24.589843 24.59375c2.34375 2.339844 6.140625 2.339844 8.484375 0l43.234375-43.234375c1.535157-1.511719 2.140625-3.730469 1.589844-5.816406-.550781-2.082032-2.179687-3.707032-4.261719-4.261719-2.082031-.550781-4.304687.054687-5.816406 1.59375l-38.988281 38.988281zm0 0"/></g></svg>