<svg height="478pt" viewBox="0 -2 478.00005 478" width="478pt" xmlns="http://www.w3.org/2000/svg"><g fill="#0635c9"><path d="m450.476562 139.832031c-3.566406 1.492188-5.25 5.59375-3.757812 9.160157 39.054688 93.644531 10.503906 201.847656-69.667969 264.035156s-192.074219 62.933594-273.066406 1.816406c-3.085937-2.332031-7.476563-1.722656-9.808594 1.363281-2.328125 3.082031-1.71875 7.472657 1.363281 9.804688 86.046876 64.890625 204.898438 64.082031 290.054688-1.972657 85.15625-66.054687 115.492188-180.972656 74.039062-280.449218-1.492187-3.566406-5.589843-5.25-9.15625-3.757813zm0 0"/><path d="m238.652344 13.949219c48.875-.152344 96.441406 15.78125 135.363281 45.34375 3.085937 2.328125 7.476563 1.71875 9.808594-1.363281 2.328125-3.085938 1.71875-7.476563-1.363281-9.804688-86.046876-64.890625-204.898438-64.082031-290.054688 1.96875-85.15625 66.054688-115.492188 180.972656-74.039062 280.453125 1.511718 3.527344 5.589843 5.179687 9.132812 3.699219 3.542969-1.484375 5.230469-5.542969 3.78125-9.101563-28.925781-69.347656-21.269531-148.566406 20.398438-211.097656 41.667968-62.53125 111.832031-100.09375 186.972656-100.097656zm0 0"/><path d="m318.527344 141.351562c-13.304688-.066406-25.332032 7.898438-30.46875 20.167969-5.136719 12.273438-2.363282 26.429688 7.019531 35.859375 9.382813 9.429688 23.527344 12.269532 35.820313 7.195313 12.296874-5.078125 20.320312-17.066407 20.320312-30.367188.023438-18.09375-14.601562-32.789062-32.691406-32.855469zm0 51.707032c-7.640625.066406-14.566406-4.488282-17.535156-11.527344s-1.394532-15.175781 3.984374-20.601562c5.378907-5.425782 13.5-7.066407 20.566407-4.160157 7.066406 2.910157 11.675781 9.796875 11.675781 17.4375.03125 10.359375-8.332031 18.792969-18.691406 18.851563zm0 0"/></g><path d="m357.371094 252.867188c0-4.355469-.265625-17.011719-.929688-22.484376l-13.898437 1.679688c.535156 4.429688.828125 16.066406.828125 20.800781-.007813 26.453125-9.207032 52.082031-26.023438 72.5-6.851562-6.636719-14.410156-12.507812-22.539062-17.5 5.828125-17.746093 8.730468-36.320312 8.601562-55 0-3.527343-.101562-7.085937-.292968-10.578125-.125-2.507812-1.582032-4.757812-3.820313-5.898437-2.238281-1.136719-4.917969-.988281-7.015625.394531-2.101562 1.378906-3.296875 3.777344-3.140625 6.285156.050781.925782.078125 1.863282.113281 2.796875h-57.566406v-28.496093c11.765625-.578126 23.40625-2.703126 34.617188-6.3125 1.222656-.398438 2.4375-.808594 3.644531-1.238282l-4.699219-13.191406c-1.078125.386719-2.164062.753906-3.257812 1.109375-9.820313 3.160156-20.007813 5.046875-30.308594 5.613281v-63.800781c10.089844 5.699219 19.128906 13.074219 26.738281 21.8125l10.539063-9.214844c-3.3125-3.789062-6.863282-7.367187-10.632813-10.707031 3.253906.941406 6.472656 2.019531 9.648437 3.234375l.640626.246094 5.113281-13.035157-.746094-.289062c-15.414063-5.90625-31.789063-8.925781-48.300781-8.898438-73.160156 0-132.683594 58.394532-132.683594 130.171876 0 71.777343 59.523438 130.164062 132.6875 130.164062.894531 0 1.785156-.015625 2.675781-.03125.167969.011719.332031.035156.5.035156.3125-.003906.625-.027344.933594-.070312 71.265625-2.144532 128.574219-59.679688 128.574219-130.097656zm-49.519532 82.785156c-13.933593 13.402344-30.914062 23.214844-49.476562 28.601562 13.367188-11.980468 24.019531-26.679687 31.246094-43.109375 6.546875 4.214844 12.652344 9.074219 18.230468 14.507813zm-201.628906-75.785156h39.878906c.496094 16.226562 3.3125 32.300781 8.371094 47.726562-8.195312 4.957031-15.816406 10.800781-22.726562 17.429688-15.117188-18.511719-24.046875-41.300782-25.523438-65.15625zm25.519532-79.15625c6.910156 6.628906 14.53125 12.472656 22.726562 17.425781-5.054688 15.429687-7.875 31.503906-8.367188 47.730469h-39.878906c1.476563-23.855469 10.402344-46.648438 25.519532-65.164063zm85.945312-41.152344v63.804687c-15.863281-.871093-31.40625-4.839843-45.746094-11.675781 9.859375-22.621094 25.480469-40.691406 45.746094-52.132812zm-58.0625 45.300781c-6.617188-4.195313-12.789062-9.046875-18.425781-14.484375 13.992187-13.558594 31.089843-23.480469 49.800781-28.90625-13.445312 12.046875-24.144531 26.84375-31.375 43.386719zm12.316406 129.183594c14.339844-6.835938 29.882813-10.804688 45.746094-11.675781v63.800781c-20.265625-11.441407-35.886719-29.507813-45.746094-52.125zm59.746094 52.125v-63.800781c15.851562.902343 31.371094 4.9375 45.65625 11.871093-9.859375 22.527344-25.449219 40.523438-45.65625 51.929688zm-14-77.828125c-17.539062.867187-34.746094 5.128906-50.667969 12.542968-4.117187-13.304687-6.441406-27.101562-6.910156-41.023437h57.578125zm-58.0625 32.527344c7.230469 16.542968 17.929688 31.335937 31.375 43.386718-18.710938-5.425781-35.808594-15.351562-49.800781-28.90625 5.636719-5.4375 11.8125-10.289062 18.425781-14.480468zm129.640625-61c-.476563 13.988281-2.820313 27.851562-6.980469 41.21875-15.871094-7.515626-33.0625-11.84375-50.597656-12.738282v-28.480468zm-129.15625-14c.46875-13.921876 2.792969-27.71875 6.910156-41.023438 15.921875 7.414062 33.125 11.675781 50.667969 12.542969v28.480469zm0 0" fill="#1ae5be"/><path d="m134.78125 364.746094-74.867188 9.722656c-1.894531.242188-3.605468 1.25-4.738281 2.785156-1.132812 1.539063-1.585937 3.46875-1.261719 5.351563l12.894532 74.386719c.480468 2.761718 2.5625 4.972656 5.289062 5.617187 2.730469.644531 5.582032-.402344 7.246094-2.660156l61.972656-84.109375c1.660156-2.257813 1.816406-5.292969.394532-7.707032-1.425782-2.414062-4.152344-3.75-6.933594-3.386718zm-56.976562 73.691406-8.84375-51.027344 51.355468-6.667968zm0 0" fill="#1ae5be"/><path d="m342.3125 109.449219c-2.636719-.003907-5.054688-1.488281-6.242188-3.84375-1.191406-2.359375-.957031-5.183594.609376-7.308594l61.972656-84.109375c1.664062-2.261719 4.515625-3.308594 7.246094-2.664062 2.726562.644531 4.808593 2.855468 5.289062 5.621093l12.894531 74.386719c.324219 1.878906-.128906 3.8125-1.261719 5.347656-1.132812 1.535156-2.84375 2.542969-4.738281 2.789063l-74.867187 9.722656c-.300782.039063-.601563.058594-.902344.058594zm57.882812-73.753907-42.511718 57.703126 51.355468-6.671876zm0 0" fill="#1ae5be"/><path d="m318.527344 111.105469c-17.566406-.074219-34.449219 6.796875-46.964844 19.117187-11.972656 11.75-19.214844 27.480469-20.363281 44.214844-.597657 9.171875.773437 18.363281 4.027343 26.957031 3.421876 8.925781 8.640626 17.050781 15.328126 23.878907l42.921874 44.800781c1.320313 1.378906 3.144532 2.15625 5.054688 2.15625 1.90625 0 3.734375-.777344 5.054688-2.15625l42.921874-44.800781c6.6875-6.828126 11.90625-14.953126 15.324219-23.878907 3.253907-8.59375 4.628907-17.785156 4.027344-26.957031-1.148437-16.734375-8.394531-32.464844-20.367187-44.214844-12.515626-12.320312-29.402344-19.195312-46.964844-19.117187zm50.183594 85.402343c-2.757813 7.132813-6.949219 13.625-12.316407 19.078126l-37.867187 39.523437-37.867188-39.519531c-5.367187-5.453125-9.558594-11.945313-12.316406-19.082032-2.558594-6.730468-3.640625-13.929687-3.179688-21.117187.914063-13.316406 6.683594-25.835937 16.214844-35.183594 20.671875-20.132812 53.621094-20.132812 74.296875 0 9.527344 9.347657 15.296875 21.867188 16.214844 35.183594.460937 7.1875-.625 14.386719-3.179687 21.117187zm0 0" fill="#0635c9"/><path d="m134.78125 364.746094-74.867188 9.722656c-1.894531.242188-3.605468 1.25-4.738281 2.785156-1.132812 1.539063-1.585937 3.46875-1.261719 5.351563l12.894532 74.386719c.480468 2.761718 2.5625 4.972656 5.289062 5.617187 2.730469.644531 5.582032-.402344 7.246094-2.660156l61.972656-84.109375c1.660156-2.257813 1.816406-5.292969.394532-7.707032-1.425782-2.414062-4.152344-3.75-6.933594-3.386718zm-56.976562 73.691406-8.84375-51.027344 51.355468-6.667968zm0 0" fill="#1ae5be"/><path d="m357.371094 252.867188c0-4.355469-.265625-17.011719-.929688-22.484376l-13.898437 1.679688c.535156 4.429688.828125 16.066406.828125 20.800781-.007813 26.453125-9.207032 52.082031-26.023438 72.5-6.851562-6.636719-14.410156-12.507812-22.539062-17.5 5.828125-17.746093 8.730468-36.320312 8.601562-55 0-3.527343-.101562-7.085937-.292968-10.578125-.125-2.507812-1.582032-4.757812-3.820313-5.898437-2.238281-1.136719-4.917969-.988281-7.015625.394531-2.101562 1.378906-3.296875 3.777344-3.140625 6.285156.050781.925782.078125 1.863282.113281 2.796875h-57.566406v-28.496093c11.765625-.578126 23.40625-2.703126 34.617188-6.3125 1.222656-.398438 2.4375-.808594 3.644531-1.238282l-4.699219-13.191406c-1.078125.386719-2.164062.753906-3.257812 1.109375-9.820313 3.160156-20.007813 5.046875-30.308594 5.613281v-63.800781c10.089844 5.699219 19.128906 13.074219 26.738281 21.8125l10.539063-9.214844c-3.3125-3.789062-6.863282-7.367187-10.632813-10.707031 3.253906.941406 6.472656 2.019531 9.648437 3.234375l.640626.246094 5.113281-13.035157-.746094-.289062c-15.414063-5.90625-31.789063-8.925781-48.300781-8.898438-73.160156 0-132.683594 58.394532-132.683594 130.171876 0 71.777343 59.523438 130.164062 132.6875 130.164062.894531 0 1.785156-.015625 2.675781-.03125.167969.011719.332031.035156.5.035156.3125-.003906.625-.027344.933594-.070312 71.265625-2.144532 128.574219-59.679688 128.574219-130.097656zm-49.519532 82.785156c-13.933593 13.402344-30.914062 23.214844-49.476562 28.601562 13.367188-11.980468 24.019531-26.679687 31.246094-43.109375 6.546875 4.214844 12.652344 9.074219 18.230468 14.507813zm-201.628906-75.785156h39.878906c.496094 16.226562 3.3125 32.300781 8.371094 47.726562-8.195312 4.957031-15.816406 10.800781-22.726562 17.429688-15.117188-18.511719-24.046875-41.300782-25.523438-65.15625zm25.519532-79.15625c6.910156 6.628906 14.53125 12.472656 22.726562 17.425781-5.054688 15.429687-7.875 31.503906-8.367188 47.730469h-39.878906c1.476563-23.855469 10.402344-46.648438 25.519532-65.164063zm85.945312-41.152344v63.804687c-15.863281-.871093-31.40625-4.839843-45.746094-11.675781 9.859375-22.621094 25.480469-40.691406 45.746094-52.132812zm-58.0625 45.300781c-6.617188-4.195313-12.789062-9.046875-18.425781-14.484375 13.992187-13.558594 31.089843-23.480469 49.800781-28.90625-13.445312 12.046875-24.144531 26.84375-31.375 43.386719zm12.316406 129.183594c14.339844-6.835938 29.882813-10.804688 45.746094-11.675781v63.800781c-20.265625-11.441407-35.886719-29.507813-45.746094-52.125zm59.746094 52.125v-63.800781c15.851562.902343 31.371094 4.9375 45.65625 11.871093-9.859375 22.527344-25.449219 40.523438-45.65625 51.929688zm-14-77.828125c-17.539062.867187-34.746094 5.128906-50.667969 12.542968-4.117187-13.304687-6.441406-27.101562-6.910156-41.023437h57.578125zm-58.0625 32.527344c7.230469 16.542968 17.929688 31.335937 31.375 43.386718-18.710938-5.425781-35.808594-15.351562-49.800781-28.90625 5.636719-5.4375 11.8125-10.289062 18.425781-14.480468zm129.640625-61c-.476563 13.988281-2.820313 27.851562-6.980469 41.21875-15.871094-7.515626-33.0625-11.84375-50.597656-12.738282v-28.480468zm-129.15625-14c.46875-13.921876 2.792969-27.71875 6.910156-41.023438 15.921875 7.414062 33.125 11.675781 50.667969 12.542969v28.480469zm0 0" fill="#1ae5be"/><path d="m318.527344 111.105469c-17.566406-.074219-34.449219 6.796875-46.964844 19.117187-11.972656 11.75-19.214844 27.480469-20.363281 44.214844-.597657 9.171875.773437 18.363281 4.027343 26.957031 3.421876 8.925781 8.640626 17.050781 15.328126 23.878907l42.921874 44.800781c1.320313 1.378906 3.144532 2.15625 5.054688 2.15625 1.90625 0 3.734375-.777344 5.054688-2.15625l42.921874-44.800781c6.6875-6.828126 11.90625-14.953126 15.324219-23.878907 3.253907-8.59375 4.628907-17.785156 4.027344-26.957031-1.148437-16.734375-8.394531-32.464844-20.367187-44.214844-12.515626-12.320312-29.402344-19.195312-46.964844-19.117187zm50.183594 85.402343c-2.757813 7.132813-6.949219 13.625-12.316407 19.078126l-37.867187 39.523437-37.867188-39.519531c-5.367187-5.453125-9.558594-11.945313-12.316406-19.082032-2.558594-6.730468-3.640625-13.929687-3.179688-21.117187.914063-13.316406 6.683594-25.835937 16.214844-35.183594 20.671875-20.132812 53.621094-20.132812 74.296875 0 9.527344 9.347657 15.296875 21.867188 16.214844 35.183594.460937 7.1875-.625 14.386719-3.179687 21.117187zm0 0" fill="#0635c9"/><path d="m191 141.46875c-13.441406 12.046875-24.140625 26.84375-31.371094 43.386719-6.617187-4.191407-12.792968-9.042969-18.429687-14.480469 13.992187-13.558594 31.089843-23.480469 49.800781-28.90625zm-59.257812 39.234375c6.914062 6.628906 14.535156 12.472656 22.726562 17.429687-5.054688 15.429688-7.875 31.503907-8.367188 47.734376h-39.878906c1.476563-23.855469 10.402344-46.648438 25.519532-65.164063zm-25.519532 79.164063h39.878906c.496094 16.226562 3.3125 32.300781 8.371094 47.726562-8.195312 4.957031-15.816406 10.800781-22.726562 17.429688-15.117188-18.511719-24.046875-41.300782-25.523438-65.15625zm34.976563 75.480468c5.636719-5.4375 11.8125-10.289062 18.425781-14.480468 7.230469 16.542968 17.929688 31.335937 31.375 43.386718-18.710938-5.425781-35.808594-15.351562-49.800781-28.90625zm120.472656-192.875c-.269531.425782-.523437.863282-.785156 1.300782-.839844-.792969-1.695313-1.570313-2.554688-2.339844 1.121094.324218 2.230469.683594 3.339844 1.039062zm0 0" fill="#d4e1f4"/></svg>