<svg height="495pt" viewBox="-75 0 495 495.31" width="495pt" xmlns="http://www.w3.org/2000/svg"><path d="m150.863281 283.546875c-2.371093-1.738281-4.644531-3.511719-6.8125-5.324219-.210937-.175781-10.609375-10.027344-10.609375-10.027344-16.164062-17.363281-24.339844-37.71875-24.339844-60.761718v-48.273438c25.929688-11.386718 50.710938-25.238281 74-41.359375-3.367187-2.332031-6.699218-4.707031-10-7.125-26.140624 19.1875-54.308593 35.445313-84 48.484375v48.273438c0 23.042968 8.175782 43.402344 24.339844 60.761718 0 0 10.402344 9.851563 10.609375 10.027344 2.167969 1.8125 4.441407 3.585938 6.8125 5.324219 12.457031 9.019531 26.171875 16.164063 40.703125 21.199219 1.960938-.632813 5.546875-1.867188 10.171875-3.769532-10.914062-4.628906-21.269531-10.476562-30.875-17.429687zm0 0" fill="#d4e1f4"/><path d="m59.25 348.214844c12.273438-12.617188 27.816406-21.5625 44.886719-25.835938-.753907-.886718-1.5-1.78125-2.226563-2.699218-50.375 2.890624-89.742187 44.578124-89.753906 95.03125v68.59375h20v-68.589844c-.054688-24.863282 9.675781-48.753906 27.09375-66.5zm0 0" fill="#d4e1f4"/><path d="m346.046875 489.308594v-74.59375c-.050781-56.609375-44.078125-103.441406-100.578125-106.984375-3.273438-.222657-4.714844 1.550781-7.875 5.402343-15.847656 19.363282-39.746094 30.328126-64.761719 29.714844-25.015625-.613281-48.34375-12.738281-63.226562-32.855468-1.167969-1.570313-3.019531-2.476563-4.976563-2.433594-58.117187 1.480468-104.464844 49.019531-104.472656 107.15625v74.59375c0 3.316406 2.683594 6 6 6h333.890625c3.3125 0 6-2.683594 6-6zm-12-6h-321.890625v-68.59375c.011719-50.453125 39.378906-92.140625 89.753906-95.03125 17.515625 22.046875 44.070313 34.980468 72.226563 35.1875 28.15625.207031 54.898437-12.335938 72.734375-34.125.253906-.308594.480468-.582032.679687-.824219 48.980469 4.535156 86.457031 45.605469 86.5 94.792969zm0 0" fill="#0635c9"/><g fill="#1ae5be"><path d="m170.855469 50.238281c3.3125 0 6-2.6875 6-6v-38.238281c0-3.3125-2.6875-6-6-6-3.316407 0-6 2.6875-6 6v38.238281c0 3.3125 2.683593 6 6 6zm0 0"/><path d="m164.855469 71.367188c0 3.3125 2.683593 6 6 6 3.3125 0 6-2.6875 6-6v-.265626c0-3.3125-2.6875-6-6-6-3.316407 0-6 2.6875-6 6zm0 0"/><path d="m206.273438 33.808594c3.316406 0 6-2.6875 6-6v-7.191406c0-3.3125-2.683594-6-6-6-3.3125 0-6 2.6875-6 6v7.191406c0 3.3125 2.6875 6 6 6zm0 0"/><path d="m200.273438 78.675781c0 3.3125 2.6875 6 6 6 3.316406 0 6-2.6875 6-6v-23.914062c0-3.3125-2.683594-6-6-6-3.3125 0-6 2.6875-6 6zm0 0"/><path d="m135.433594 28.929688c3.3125 0 6-2.6875 6-6v-2.3125c0-3.3125-2.6875-6-6-6s-6 2.6875-6 6v2.3125c0 3.3125 2.6875 6 6 6zm0 0"/><path d="m129.433594 78.675781c0 3.3125 2.6875 6 6 6s6-2.6875 6-6v-29.03125c0-3.3125-2.6875-6-6-6s-6 2.6875-6 6zm0 0"/><path d="m100.015625 54.554688c3.3125 0 6-2.6875 6-6v-13.320313c0-3.3125-2.6875-6-6-6-3.316406 0-6 2.6875-6 6v13.320313c0 3.3125 2.683594 6 6 6zm0 0"/><path d="m94.015625 97.527344c0 3.3125 2.683594 6 6 6 3.3125 0 6-2.6875 6-6v-21.652344c0-3.316406-2.6875-6-6-6-3.316406 0-6 2.683594-6 6zm0 0"/><path d="m241.695312 58.046875c3.3125 0 6-2.6875 6-6v-16.8125c0-3.3125-2.6875-6-6-6s-6 2.6875-6 6v16.8125c0 3.3125 2.6875 6 6 6zm0 0"/><path d="m235.695312 100.601562c0 3.3125 2.6875 6 6 6s6-2.6875 6-6v-21.367187c0-3.3125-2.6875-6-6-6s-6 2.6875-6 6zm0 0"/><path d="m265.464844 149.710938-.585938-.25c-31.308594-13.472657-60.90625-30.613282-88.179687-51.058594-2.132813-1.601563-5.066407-1.601563-7.199219 0-27.269531 20.445312-56.867188 37.582031-88.171875 51.050781l-.59375.257813c-2.203125.945312-3.632813 3.113281-3.632813 5.511718v52.210938c0 33.78125 16.140626 63.445312 46.675782 85.796875 14.019531 10.234375 29.574218 18.1875 46.078125 23.566406 1.082031.316406 2.230469.320313 3.316406.015625 16.988281-5.339844 33.050781-13.273438 47.613281-23.523438 31.609375-22.347656 48.316406-52.035156 48.316406-85.855468v-52.210938c0-2.398437-1.429687-4.566406-3.636718-5.511718zm-8.363282 57.722656c0 22.621094-8.179687 42.664062-24.363281 59.832031-.273437-3.191406-3-5.605469-6.203125-5.488281-3.199218.121094-5.742187 2.730468-5.773437 5.933594v5.5c-.003907 1.425781.507812 2.808593 1.4375 3.890624-2.554688 2.113282-5.242188 4.175782-8.066407 6.1875-13.082031 9.164063-27.417968 16.386719-42.5625 21.453126-14.53125-5.035157-28.246093-12.179688-40.703124-21.199219-2.597657-1.902344-5.078126-3.855469-7.441407-5.851563 1.285157-1.136718 2.019531-2.765625 2.019531-4.480468v-5.5c0-3.3125-2.6875-6-6-6s-6 2.6875-6 6v.484374c-16.167968-17.363281-24.34375-37.71875-24.34375-60.761718v-48.273438c29.691407-13.039062 57.859376-29.296875 84-48.484375 26.140626 19.1875 54.308594 35.445313 84 48.484375zm0 0"/><path d="m173.101562 261.710938c-3.3125 0-6 2.6875-6 6v5.5c0 3.3125 2.6875 6 6 6s6-2.6875 6-6v-5.5c0-3.3125-2.6875-6-6-6zm0 0"/><path d="m190.988281 261.710938c-3.3125 0-6 2.6875-6 6v5.5c0 3.3125 2.6875 6 6 6s6-2.6875 6-6v-5.5c0-3.3125-2.6875-6-6-6zm0 0"/><path d="m202.875 267.710938v5.5c0 3.3125 2.683594 6 6 6 3.3125 0 6-2.6875 6-6v-5.5c0-3.3125-2.6875-6-6-6-3.316406 0-6 2.6875-6 6zm0 0"/><path d="m155.214844 261.710938c-3.316406 0-6 2.6875-6 6v5.5c0 3.3125 2.683594 6 6 6 3.3125 0 6-2.6875 6-6v-5.5c0-3.3125-2.6875-6-6-6zm0 0"/><path d="m137.328125 261.710938c-3.3125 0-6 2.6875-6 6v5.5c0 3.3125 2.6875 6 6 6s6-2.6875 6-6v-5.5c0-3.3125-2.6875-6-6-6zm0 0"/><path d="m149.242188 200.410156c-2.351563-2.289062-6.105469-2.261718-8.425782.058594-2.320312 2.320312-2.347656 6.074219-.058594 8.425781l20.378907 20.378907c2.339843 2.34375 6.140625 2.34375 8.484375 0l35.824218-35.824219c2.289063-2.351563 2.261719-6.105469-.058593-8.425781-2.320313-2.324219-6.074219-2.347657-8.425781-.058594l-31.582032 31.582031zm0 0"/></g></svg>