<svg enable-background="new 0 0 256 256" height="512" viewBox="0 0 256 256" width="512" xmlns="http://www.w3.org/2000/svg"><path d="m208.897 153.92c-2.039 1.289-4.377 1.932-6.714 1.932s-4.674-.644-6.714-1.932l-14.438-9.123c-18.846-11.908-30.097-32.327-30.097-54.62v-2.86h-135.694c-6.969 0-12.671 5.702-12.671 12.671v109.817c0 6.969 5.702 12.671 12.671 12.671h187.957c6.969 0 12.671-5.702 12.671-12.671v-60.291z" fill="#edf4fc"/><path d="m154.681 111.963h-152.112v26.398h169.917c-8.122-7.225-14.208-16.298-17.805-26.398z" fill="#2a4a97"/><path d="m78.12 149.821h-53.378c-.724 0-1.311.587-1.311 1.311v7.377c0 .724.587 1.311 1.311 1.311h53.378c.724 0 1.311-.587 1.311-1.311v-7.377c0-.724-.587-1.311-1.311-1.311z" fill="#c5e3ff"/><path d="m106.8 149.821h-15.738c-.724 0-1.311.587-1.311 1.311v7.377c0 .724.587 1.311 1.311 1.311h15.738c.724 0 1.311-.587 1.311-1.311v-7.377c0-.724-.587-1.311-1.311-1.311z" fill="#c5e3ff"/><path d="m150.934 61.174c0-2.349 1.544-4.321 3.67-5.008h-110.853c-6.969 0-12.671 5.702-12.671 12.671v18.479h119.854z" fill="#1387ce"/><path d="m223.334 144.797-7.466 4.718v41.812h15.839c6.969 0 12.671-5.702 12.671-12.671v-55.409c-5.114 8.585-12.252 15.994-21.044 21.55z" fill="#1387ce"/><path d="m202.182 155.852c-2.338 0-4.674-.644-6.714-1.932l-14.438-9.123c-18.846-11.908-30.097-32.327-30.097-54.62v-29.003c0-2.893 2.326-5.249 5.22-5.286 16.356-.205 31.633-7.639 41.913-20.396 1.003-1.245 2.517-1.969 4.116-1.969s3.113.724 4.116 1.969c10.279 12.756 25.557 20.19 41.913 20.396 2.893.036 5.22 2.392 5.22 5.286v29.002c0 22.293-11.251 42.712-30.097 54.62l-14.438 9.123c-2.039 1.29-4.376 1.933-6.714 1.933z" fill="#a0d85d"/><path d="m161.506 66.187v23.989c0 18.646 9.411 35.724 25.172 45.683l14.438 9.123c.649.41 1.487.41 2.134 0l14.438-9.123c15.762-9.959 25.172-27.037 25.172-45.683v-23.989c-15.473-1.426-29.84-8.292-40.677-19.417-10.837 11.125-25.205 17.991-40.677 19.417z" fill="#66bc24"/><path d="m217.788 88.396h-31.211c-1.772 0-3.209 1.437-3.209 3.209v23.895c0 1.772 1.437 3.209 3.209 3.209h31.211c1.772 0 3.209-1.437 3.209-3.209v-23.896c0-1.772-1.437-3.208-3.209-3.208z" fill="#45bdf0"/><circle cx="202.182" cy="101.821" fill="#1387ce" r="5"/><path d="m152.839 184.848c0-6.241 2.898-11.797 7.415-15.421-3.386-2.717-7.678-4.351-12.357-4.351-10.92 0-19.772 8.852-19.772 19.772s8.852 19.772 19.772 19.772c4.679 0 8.971-1.634 12.357-4.351-4.516-3.624-7.415-9.18-7.415-15.421z" fill="#fc3850"/><path d="m172.611 165.076c-4.679 0-8.971 1.634-12.357 4.351 4.516 3.624 7.415 9.18 7.415 15.421s-2.899 11.797-7.415 15.421c3.386 2.717 7.678 4.351 12.357 4.351 10.92 0 19.772-8.852 19.772-19.772s-8.852-19.772-19.772-19.772z" fill="#f9d87a"/><ellipse cx="160.254" cy="184.848" fill="#fcac27" rx="7.415" ry="15.421"/><path d="m203.197 224.977h-187.957c-8.365 0-15.171-6.806-15.171-15.172v-109.818c0-8.365 6.806-15.171 15.171-15.171h135.693c1.381 0 2.5 1.119 2.5 2.5v2.859c0 21.432 10.815 41.061 28.932 52.508l14.438 9.123c3.201 2.021 7.557 2.021 10.758 0l6.972-4.405c.769-.486 1.743-.516 2.541-.076.799.439 1.294 1.278 1.294 2.189v60.29c0 8.367-6.806 15.173-15.171 15.173zm-187.957-135.161c-5.608 0-10.171 4.562-10.171 10.171v109.817c0 5.608 4.562 10.172 10.171 10.172h187.957c5.608 0 10.171-4.563 10.171-10.172v-55.753l-3.137 1.981c-2.4 1.517-5.184 2.318-8.049 2.318-2.864 0-5.648-.802-8.05-2.317l-14.438-9.124c-19.574-12.369-31.261-33.578-31.261-56.734v-.359zm193.656 64.104h.01z"/><path d="m172.485 140.861h-169.916c-1.381 0-2.5-1.119-2.5-2.5v-26.398c0-1.381 1.119-2.5 2.5-2.5h152.111c1.058 0 2 .665 2.355 1.661 3.46 9.716 9.377 18.488 17.111 25.369.775.69 1.044 1.787.675 2.757-.368.971-1.298 1.611-2.336 1.611zm-167.416-5h161.287c-5.783-6.21-10.355-13.493-13.414-21.398h-147.873z"/><path d="m147.896 207.12c-12.28 0-22.271-9.991-22.271-22.272 0-12.28 9.991-22.271 22.271-22.271 5.039 0 9.983 1.74 13.922 4.9.592.475.936 1.192.936 1.95s-.344 1.476-.936 1.95c-4.117 3.304-6.479 8.214-6.479 13.471 0 5.258 2.361 10.168 6.479 13.471.592.475.936 1.192.936 1.95s-.344 1.476-.936 1.95c-3.939 3.16-8.883 4.901-13.922 4.901zm0-39.544c-9.523 0-17.271 7.748-17.271 17.271 0 9.524 7.748 17.272 17.271 17.272 2.974 0 5.818-.741 8.363-2.162-3.795-4.091-5.92-9.443-5.92-15.11 0-5.666 2.125-11.019 5.92-15.11-2.544-1.421-5.388-2.161-8.363-2.161z"/><path d="m172.611 207.12c-5.038 0-9.982-1.741-13.922-4.901-.592-.475-.936-1.192-.936-1.95s.344-1.476.936-1.95c4.118-3.304 6.479-8.214 6.479-13.471 0-5.256-2.361-10.166-6.479-13.471-.592-.475-.936-1.192-.936-1.95s.344-1.476.936-1.95c3.938-3.16 8.883-4.9 13.922-4.9 12.281 0 22.272 9.991 22.272 22.271.001 12.281-9.99 22.272-22.272 22.272zm-8.363-7.162c2.545 1.421 5.39 2.162 8.363 2.162 9.524 0 17.272-7.748 17.272-17.272 0-9.523-7.748-17.271-17.272-17.271-2.975 0-5.818.74-8.363 2.161 3.795 4.092 5.921 9.444 5.921 15.11 0 5.667-2.125 11.019-5.921 15.11z"/><path d="m160.254 202.769c-.554 0-1.107-.184-1.564-.55-5.307-4.258-8.35-10.589-8.35-17.371 0-6.781 3.043-13.112 8.35-17.371.914-.732 2.215-.732 3.129 0 5.307 4.26 8.351 10.591 8.351 17.371 0 6.781-3.044 13.113-8.351 17.371-.458.366-1.011.55-1.565.55zm0-29.975c-3.146 3.214-4.914 7.504-4.914 12.054 0 4.551 1.77 8.841 4.914 12.054 3.146-3.214 4.915-7.504 4.915-12.054 0-4.549-1.77-8.839-4.915-12.054z"/><path d="m150.934 89.816h-119.855c-1.381 0-2.5-1.119-2.5-2.5v-18.479c0-8.365 6.806-15.171 15.172-15.171h110.853c1.23 0 2.278.896 2.47 2.111s-.53 2.39-1.701 2.768c-1.159.374-1.938 1.431-1.938 2.629v26.143c-.001 1.38-1.121 2.499-2.501 2.499zm-117.355-5h114.854v-23.642c0-.872.145-1.717.415-2.508h-105.097c-5.608 0-10.172 4.562-10.172 10.171z"/><path d="m231.707 193.826h-15.839c-1.381 0-2.5-1.119-2.5-2.5v-41.812c0-.857.439-1.655 1.164-2.113l7.466-4.718c8.278-5.231 15.275-12.395 20.233-20.717.577-.967 1.727-1.427 2.812-1.131 1.084.299 1.836 1.285 1.836 2.41v55.408c0 8.368-6.806 15.173-15.172 15.173zm-13.339-5h13.339c5.608 0 10.172-4.563 10.172-10.172v-47.335c-4.765 6.112-10.61 11.421-17.209 15.591l-6.302 3.982z"/><path d="m39.431 102.321h-16c-1.381 0-2.5-1.119-2.5-2.5s1.119-2.5 2.5-2.5h16c1.381 0 2.5 1.119 2.5 2.5s-1.119 2.5-2.5 2.5z"/><path d="m78.12 162.321h-53.378c-2.102 0-3.812-1.71-3.812-3.812v-7.377c0-2.102 1.71-3.812 3.812-3.812h53.378c2.102 0 3.811 1.71 3.811 3.812v7.377c0 2.102-1.709 3.812-3.811 3.812zm-52.189-5h51v-5h-51zm52.189-5h.01z"/><path d="m106.8 162.321h-15.738c-2.102 0-3.811-1.71-3.811-3.812v-7.377c0-2.102 1.709-3.812 3.811-3.812h15.738c2.102 0 3.812 1.71 3.812 3.812v7.377c-.001 2.102-1.711 3.812-3.812 3.812zm-14.549-5h13.36v-5h-13.36zm14.549-5h.01z"/><path d="m212.466 90.896h-20.566c-1.381 0-2.5-1.119-2.5-2.5v-8.179c0-7.048 5.734-12.782 12.783-12.782s12.783 5.734 12.783 12.782v8.179c0 1.38-1.119 2.5-2.5 2.5zm-18.067-5h15.566v-5.679c0-4.291-3.491-7.782-7.783-7.782s-7.783 3.491-7.783 7.782z"/><path d="m202.183 158.353c-2.865 0-5.649-.802-8.05-2.319l-14.438-9.123c-19.574-12.369-31.261-33.578-31.261-56.734v-29.003c0-4.24 3.449-7.733 7.688-7.786 15.609-.195 30.188-7.29 39.998-19.464 1.485-1.844 3.695-2.9 6.062-2.9 2.366 0 4.576 1.057 6.062 2.899 9.812 12.175 24.39 19.27 39.998 19.465 4.239.053 7.688 3.546 7.688 7.786v29.002c0 23.156-11.687 44.365-31.262 56.734l-14.437 9.123c-2.399 1.518-5.182 2.32-8.048 2.32zm0-122.33c-.848 0-1.639.378-2.17 1.038-10.748 13.338-26.723 21.111-43.828 21.326-1.517.019-2.751 1.269-2.751 2.786v29.002c0 21.432 10.815 41.061 28.932 52.508l14.438 9.123c3.201 2.023 7.558 2.023 10.757 0l14.438-9.123c18.117-11.447 28.933-31.076 28.933-52.508v-29.001c0-1.518-1.234-2.768-2.751-2.786-17.104-.215-33.079-7.988-43.828-21.327-.533-.66-1.324-1.038-2.17-1.038z"/><path d="m202.184 147.787c-.835 0-1.671-.229-2.401-.689l-14.44-9.125c-16.49-10.421-26.336-28.289-26.336-47.797v-23.988c0-1.292.984-2.371 2.271-2.489 14.827-1.367 28.719-7.999 39.115-18.672.941-.967 2.641-.967 3.582 0 10.396 10.673 24.288 17.305 39.115 18.672 1.286.118 2.271 1.197 2.271 2.489v23.988c0 19.508-9.846 37.376-26.337 47.797l-14.438 9.123c-.73.461-1.565.691-2.402.691zm.267-4.918h.01zm-38.445-74.44v21.747c0 17.783 8.975 34.071 24.008 43.57l14.169 8.953 14.168-8.953c15.034-9.5 24.009-25.788 24.009-43.57v-21.747c-14.323-1.812-27.721-8.18-38.177-18.143-10.456 9.963-23.854 16.331-38.177 18.143z"/><path d="m217.788 121.208h-31.211c-3.147 0-5.709-2.562-5.709-5.709v-23.895c0-3.147 2.562-5.709 5.709-5.709h31.211c3.147 0 5.709 2.562 5.709 5.709v23.895c0 3.147-2.561 5.709-5.709 5.709zm-31.211-30.312c-.391 0-.709.318-.709.709v23.895c0 .391.318.709.709.709h31.211c.391 0 .709-.318.709-.709v-23.896c0-.391-.318-.709-.709-.709h-31.211z"/><path d="m202.183 109.321c-4.136 0-7.5-3.364-7.5-7.5s3.364-7.5 7.5-7.5 7.5 3.364 7.5 7.5-3.365 7.5-7.5 7.5zm0-10c-1.379 0-2.5 1.121-2.5 2.5s1.121 2.5 2.5 2.5 2.5-1.121 2.5-2.5-1.121-2.5-2.5-2.5z"/></svg>