<svg height="492pt" viewBox="0 -27 492.00001 492" width="492pt" xmlns="http://www.w3.org/2000/svg"><path d="m52.816406 309.644531c-25.777344-31.554687-40.4375-70.726562-41.710937-111.453125h70.484375c.546875 27.886719 4.902344 54.070313 12.6875 77.847656-15.273438 9.277344-29.222656 20.582032-41.460938 33.605469zm0 0" fill="#d4e1f4"/><path d="m52.816406 74.746094c12.242188 13.023437 26.1875 24.324218 41.460938 33.601562-7.785156 23.773438-12.140625 49.957032-12.6875 77.84375h-70.484375c1.277343-40.722656 15.9375-79.890625 41.710937-111.445312zm0 0" fill="#d4e1f4"/><path d="m164.625 11.65625c-30.007812 20.96875-52.9375 51.320312-67.222656 88.15625-13.875-8.679688-26.542969-19.160156-37.671875-31.160156 27.753906-30 64.617187-50.03125 104.894531-56.996094zm0 0" fill="#d4e1f4"/><path d="m60.730469 318.738281c11.128906-12 23.796875-22.476562 37.667969-31.160156 14.28125 36.832031 37.207031 67.183594 67.207031 88.152344-40.269531-6.964844-77.125-26.996094-104.875-56.992188zm0 0" fill="#d4e1f4"/><path d="m193.328125 386.660156c24.0625.039063 47.914063-4.4375 70.324219-13.1875l-4.367188-11.183594c-11.160156 4.363282-22.734375 7.59375-34.542968 9.652344 9.308593-6.566406 17.929687-14.054687 25.738281-22.347656l-8.738281-8.230469c-12.203126 13-26.550782 23.8125-42.414063 31.960938v-114.398438c11.933594.324219 23.800781 1.839844 35.433594 4.523438l2.699219-11.691407c-12.515626-2.886718-25.292969-4.507812-38.132813-4.832031v-47.601562h73.933594v-12h-73.933594v-47.589844c29.234375-.730469 57.90625-8.171875 83.808594-21.742187 6.269531 20.269531 9.902343 41.257812 10.808593 62.457031l11.988282-.558594c-.988282-23.089844-5.074219-45.941406-12.140625-67.945313 14.875-9.058593 28.445312-20.113281 40.324219-32.855468 17.519531 21.5625 29.851562 46.855468 36.046874 73.9375l11.703126-2.65625c-20.074219-87.96875-98.308594-150.3632815-188.539063-150.371094-106.601563 0-193.328125 86.726562-193.328125 193.328125 0 106.605469 86.726562 193.332031 193.328125 193.332031zm-100.511719-274.96875c-7.820312 24.464844-11.976562 49.953125-12.332031 75.636719h-68.375c1.273437-39.539063 15.503906-77.558594 40.5-108.21875 11.878906 12.617187 25.402344 23.574219 40.207031 32.582031zm-12.332031 87.636719c.355469 25.683594 4.511719 51.171875 12.332031 75.640625-14.808594 9.003906-28.332031 19.960938-40.210937 32.578125-24.996094-30.660156-39.226563-68.683594-40.5-108.21875zm-19.964844 117.316406c10.769531-11.59375 23.015625-21.726562 36.421875-30.132812 13.84375 35.617187 35.992188 65.003906 64.941406 85.414062-38.914062-6.882812-74.507812-26.296875-101.363281-55.28125zm126.808594 56.65625c-36.632813-18.804687-64.136719-51.367187-79.859375-92.898437 24.609375-13.214844 51.941406-20.550782 79.859375-21.441406zm0-126.351562c-29.242187.871093-57.902344 8.382812-83.816406 21.964843-6.949219-22.554687-10.65625-45.984374-11.011719-69.585937h94.828125zm-94.828125-59.621094c.355469-23.597656 4.0625-47.023437 11.011719-69.578125 25.910156 13.582031 54.574219 21.09375 83.816406 21.960938v47.617187zm94.828125-59.628906c-27.917969-.886719-55.25-8.226563-79.855469-21.445313 15.722656-41.523437 43.226563-74.082031 79.855469-92.886718zm12 .035156v-114.371094c27.742187 14.210938 50.152344 35.988281 66.625 64.832031 5.152344 9.066407 9.574219 18.527344 13.230469 28.296876-24.597656 13.214843-51.941406 20.488281-79.855469 21.242187zm126.882813-57.753906c-10.769532 11.71875-23.054688 21.945312-36.527344 30.414062-3.726563-9.703125-8.175782-19.113281-13.308594-28.152343-12.800781-22.703126-30.425781-42.324219-51.632812-57.480469 38.957031 6.800781 74.605468 26.199219 101.46875 55.21875zm-164.3125-55.246094c-28.949219 20.398437-51.097657 49.796875-64.949219 85.417969-13.410157-8.410156-25.65625-18.542969-36.429688-30.136719 26.863281-28.992187 62.464844-48.402344 101.378907-55.28125zm0 0" fill="#0635c9"/><g fill="#1ae5be"><path d="m481.121094 203.824219c-41.859375-18.496094-81.511719-41.636719-118.207032-68.988281-2.132812-1.601563-5.066406-1.601563-7.199218 0-36.691406 27.351562-76.34375 50.492187-118.203125 68.988281-6.625 2.960937-10.886719 9.539062-10.878907 16.792969v65.738281c0 46.734375 22.375 87.808593 64.699219 118.789062 31.609375 23.132813 62.792969 32.414063 64.101563 32.800781 1.082031.316407 2.230468.320313 3.3125.015626 1.355468-.382813 33.589844-9.648438 66.273437-32.753907 43.820313-30.980469 66.980469-72.078125 66.980469-118.851562v-65.738281c.003906-7.253907-4.253906-13.832032-10.878906-16.792969zm-1.121094 82.53125c0 34.40625-13.15625 64.628906-39.152344 90.164062v-5.324219c0-3.3125-2.6875-6-6-6s-6 2.6875-6 6v7.75c.003906 2.320313 1.34375 4.433594 3.445313 5.421876-4.347657 3.722656-8.988281 7.335937-13.917969 10.839843-18.804688 13.160157-39.429688 23.5-61.226562 30.695313-20.980469-7.175782-40.773438-17.433594-58.726563-30.441406-4.710937-3.449219-9.144531-7.003907-13.300781-10.671876 2.726562-.625 4.660156-3.046874 4.660156-5.84375v-7.75c0-3.3125-2.683594-6-6-6-3.3125 0-6 2.6875-6 6v6.738282c-26-25.820313-39.148438-56.523438-39.148438-91.578125v-65.738281c-.011718-2.515626 1.460938-4.796876 3.753907-5.828126 41.308593-18.261718 80.515625-40.953124 116.925781-67.675781 36.414062 26.722657 75.621094 49.417969 116.933594 67.675781 2.289062 1.035157 3.761718 3.316407 3.753906 5.828126zm0 0"/><path d="m359.316406 365.195312c-3.3125 0-6 2.6875-6 6v7.75c0 3.3125 2.6875 6 6 6s6-2.6875 6-6v-7.75c0-3.3125-2.6875-6-6-6zm0 0"/><path d="m384.492188 365.195312c-3.3125 0-6 2.6875-6 6v7.75c0 3.3125 2.6875 6 6 6 3.316406 0 6-2.6875 6-6v-7.75c0-3.3125-2.683594-6-6-6zm0 0"/><path d="m409.671875 365.195312c-3.316406 0-6 2.6875-6 6v7.75c0 3.3125 2.683594 6 6 6 3.3125 0 6-2.6875 6-6v-7.75c0-3.3125-2.6875-6-6-6zm0 0"/><path d="m334.140625 365.195312c-3.3125 0-6 2.6875-6 6v7.75c0 3.3125 2.6875 6 6 6s6-2.6875 6-6v-7.75c0-3.3125-2.6875-6-6-6zm0 0"/><path d="m308.964844 365.195312c-3.316406 0-6 2.6875-6 6v7.75c0 3.3125 2.683594 6 6 6 3.3125 0 6-2.6875 6-6v-7.75c0-3.3125-2.6875-6-6-6zm0 0"/><path d="m403.113281 256.453125c-2.34375-2.339844-6.140625-2.339844-8.484375 0l-46.183594 46.183594-24.441406-24.441407c-2.347656-2.308593-6.121094-2.292968-8.449218.035157-2.328126 2.332031-2.34375 6.101562-.035157 8.453125l28.679688 28.679687c2.34375 2.34375 6.144531 2.34375 8.484375 0l50.425781-50.425781c2.34375-2.339844 2.347656-6.140625.003906-8.484375zm0 0"/></g></svg>