<svg enable-background="new 0 0 256 256" height="512" viewBox="0 0 256 256" width="512" xmlns="http://www.w3.org/2000/svg"><path d="m226.477 64.5h-43.074l2.211 22h40.863c2.247 0 4.085-1.838 4.085-4.085v-13.83c.001-2.247-1.838-4.085-4.085-4.085z" fill="#45bdf0"/><path d="m185.615 86.5 1.746 17.379h37.202v-17.379z" fill="#1387ce"/><path d="m181.853 49.067c-.145-1.441-1.358-2.539-2.807-2.539h-83.967c-1.449 0-2.662 1.097-2.807 2.539l-5.508 54.812h100.597z" fill="#facb35"/><circle cx="183.193" cy="232.346" fill="#2a4a97" r="21.154"/><circle cx="183.193" cy="232.346" fill="#c5e3ff" r="8.576"/><circle cx="115.193" cy="232.346" fill="#2a4a97" r="21.154"/><circle cx="115.193" cy="232.346" fill="#c5e3ff" r="8.576"/><path d="m218.816 202.11h-129.376l-25.245-137.727c-.656-3.579-3.775-6.178-7.413-6.178h-37.683c-4.162 0-7.536 3.374-7.536 7.536s3.374 7.536 7.536 7.536h31.402l25.245 137.728c.656 3.579 3.775 6.178 7.413 6.178h17.301c3.81-3.702 9-5.99 14.732-5.99s10.922 2.289 14.732 5.99h38.536c3.81-3.702 9-5.99 14.732-5.99s10.922 2.289 14.732 5.99h20.891c4.162 0 7.536-3.374 7.536-7.536.002-4.163-3.372-7.537-7.535-7.537z" fill="#c5e3ff"/><path d="m234.399 121.009h-159.825l14.866 81.101h127.646l17.514-81.112c-.067.003-.133.011-.201.011z" fill="#fc3850"/><g fill="#f9677f"><path d="m234.399 103.879h-162.964l3.14 17.13h159.825c3.252 0 5.912-2.661 5.912-5.912v-5.305c-.001-3.252-2.661-5.913-5.913-5.913z"/><path d="m108.462 138.444h-.509c-3.71 0-6.745 3.035-6.745 6.745v30.509c0 3.71 3.035 6.745 6.745 6.745h.509c3.71 0 6.745-3.035 6.745-6.745v-30.508c.001-3.71-3.035-6.746-6.745-6.746z"/><path d="m138.129 138.444h-.509c-3.71 0-6.745 3.035-6.745 6.745v30.509c0 3.71 3.035 6.745 6.745 6.745h.509c3.71 0 6.745-3.035 6.745-6.745v-30.508c0-3.71-3.035-6.746-6.745-6.746z"/><path d="m167.796 138.444h-.509c-3.71 0-6.745 3.035-6.745 6.745v30.509c0 3.71 3.035 6.745 6.745 6.745h.509c3.71 0 6.745-3.035 6.745-6.745v-30.508c0-3.71-3.035-6.746-6.745-6.746z"/><path d="m197.462 138.444h-.509c-3.71 0-6.745 3.035-6.745 6.745v30.509c0 3.71 3.035 6.745 6.745 6.745h.509c3.71 0 6.745-3.035 6.745-6.745v-30.508c.001-3.71-3.035-6.746-6.745-6.746z"/></g><path d="m217.086 204.61h-127.646c-1.207 0-2.241-.862-2.459-2.049l-14.866-81.102c-.134-.729.063-1.481.539-2.051s1.179-.899 1.92-.899h159.782c.146-.009.198-.01.244-.01.738 0 1.44.327 1.917.895.495.591.689 1.378.526 2.133l-17.515 81.112c-.247 1.15-1.264 1.971-2.442 1.971zm-125.563-5h123.545l16.433-76.102h-153.927z"/><path d="m234.399 123.509h-159.825c-1.207 0-2.241-.862-2.459-2.049l-3.14-17.129c-.134-.73.063-1.481.539-2.051s1.179-.899 1.92-.899h162.965c4.639 0 8.412 3.773 8.412 8.412v5.305c.001 4.637-3.773 8.411-8.412 8.411zm-157.741-5h157.742c1.882 0 3.412-1.531 3.412-3.412v-5.305c0-1.881-1.53-3.412-3.412-3.412h-159.965z"/><path d="m183.192 256c-13.043 0-23.653-10.611-23.653-23.654 0-13.042 10.61-23.653 23.653-23.653s23.654 10.611 23.654 23.653c.001 13.043-10.611 23.654-23.654 23.654zm0-42.307c-10.285 0-18.653 8.368-18.653 18.653s8.368 18.654 18.653 18.654c10.286 0 18.654-8.368 18.654-18.654s-8.367-18.653-18.654-18.653z"/><path d="m183.192 243.422c-6.106 0-11.075-4.969-11.075-11.076s4.969-11.076 11.075-11.076c6.107 0 11.076 4.969 11.076 11.076.001 6.108-4.968 11.076-11.076 11.076zm0-17.151c-3.35 0-6.075 2.726-6.075 6.076 0 3.351 2.726 6.076 6.075 6.076 3.351 0 6.076-2.726 6.076-6.076.001-3.351-2.725-6.076-6.076-6.076z"/><path d="m115.193 256c-13.043 0-23.654-10.611-23.654-23.654 0-13.042 10.611-23.653 23.654-23.653s23.654 10.611 23.654 23.653c0 13.043-10.611 23.654-23.654 23.654zm0-42.307c-10.286 0-18.654 8.368-18.654 18.653s8.368 18.654 18.654 18.654 18.654-8.368 18.654-18.654-8.368-18.653-18.654-18.653z"/><path d="m115.193 243.422c-6.107 0-11.076-4.969-11.076-11.076s4.969-11.076 11.076-11.076 11.076 4.969 11.076 11.076c0 6.108-4.969 11.076-11.076 11.076zm0-17.151c-3.35 0-6.076 2.726-6.076 6.076 0 3.351 2.726 6.076 6.076 6.076s6.076-2.726 6.076-6.076c0-3.351-2.726-6.076-6.076-6.076z"/><path d="m218.816 219.683h-20.892c-.65 0-1.275-.253-1.742-.707-3.506-3.407-8.119-5.283-12.99-5.283-4.87 0-9.483 1.876-12.989 5.283-.467.454-1.092.707-1.742.707h-38.536c-.65 0-1.275-.253-1.742-.707-3.506-3.407-8.12-5.283-12.99-5.283s-9.483 1.876-12.99 5.283c-.467.454-1.092.707-1.742.707h-17.301c-4.846 0-8.998-3.46-9.873-8.227l-24.87-135.678h-29.317c-5.534 0-10.037-4.502-10.037-10.036s4.502-10.037 10.037-10.037h37.682c4.846 0 8.998 3.46 9.872 8.227l24.87 135.679h127.293c5.534 0 10.036 4.502 10.036 10.037 0 5.533-4.502 10.035-10.037 10.035zm-19.909-5h19.909c2.777 0 5.036-2.259 5.036-5.036s-2.259-5.037-5.036-5.037h-129.376c-1.207 0-2.241-.862-2.459-2.049l-25.245-137.728c-.439-2.392-2.522-4.128-4.954-4.128h-37.682c-2.777 0-5.037 2.259-5.037 5.037 0 2.777 2.259 5.036 5.037 5.036h31.401c1.207 0 2.241.862 2.459 2.049l25.245 137.728c.439 2.392 2.522 4.128 4.955 4.128h16.319c4.341-3.871 9.881-5.99 15.714-5.99s11.373 2.12 15.714 5.99h36.571c4.341-3.871 9.881-5.99 15.714-5.99s11.374 2.119 15.715 5.99z"/><path d="m108.462 184.944h-.509c-5.098 0-9.246-4.147-9.246-9.246v-30.509c0-5.098 4.147-9.245 9.246-9.245h.509c5.098 0 9.245 4.147 9.245 9.245v30.509c.001 5.099-4.147 9.246-9.245 9.246zm-.509-44c-2.341 0-4.246 1.904-4.246 4.245v30.509c0 2.341 1.905 4.246 4.246 4.246h.509c2.341 0 4.245-1.905 4.245-4.246v-30.509c0-2.341-1.904-4.245-4.245-4.245z"/><path d="m138.129 184.944h-.509c-5.099 0-9.246-4.147-9.246-9.246v-30.509c0-5.098 4.147-9.245 9.246-9.245h.509c5.098 0 9.245 4.147 9.245 9.245v30.509c0 5.099-4.147 9.246-9.245 9.246zm-.509-44c-2.341 0-4.246 1.904-4.246 4.245v30.509c0 2.341 1.905 4.246 4.246 4.246h.509c2.341 0 4.245-1.905 4.245-4.246v-30.509c0-2.341-1.904-4.245-4.245-4.245z"/><path d="m167.796 184.944h-.51c-5.098 0-9.245-4.147-9.245-9.246v-30.509c0-5.098 4.147-9.245 9.245-9.245h.51c5.098 0 9.245 4.147 9.245 9.245v30.509c0 5.099-4.147 9.246-9.245 9.246zm-.51-44c-2.341 0-4.245 1.904-4.245 4.245v30.509c0 2.341 1.904 4.246 4.245 4.246h.51c2.341 0 4.245-1.905 4.245-4.246v-30.509c0-2.341-1.904-4.245-4.245-4.245z"/><path d="m197.462 184.944h-.509c-5.098 0-9.245-4.147-9.245-9.246v-30.509c0-5.098 4.147-9.245 9.245-9.245h.509c5.099 0 9.246 4.147 9.246 9.245v30.509c0 5.099-4.147 9.246-9.246 9.246zm-.509-44c-2.341 0-4.245 1.904-4.245 4.245v30.509c0 2.341 1.904 4.246 4.245 4.246h.509c2.341 0 4.246-1.905 4.246-4.246v-30.509c0-2.341-1.905-4.245-4.246-4.245z"/><path d="m165.319 61.514c-1.381 0-2.5-1.119-2.5-2.5v-28.257c0-14.202-11.554-25.757-25.757-25.757-14.202 0-25.756 11.555-25.756 25.757v28.257c0 1.381-1.119 2.5-2.5 2.5s-2.5-1.119-2.5-2.5v-28.257c0-16.96 13.798-30.757 30.756-30.757 16.959 0 30.757 13.797 30.757 30.757v28.257c0 1.381-1.119 2.5-2.5 2.5z"/><path d="m108.563 72c-4.136 0-7.5-3.364-7.5-7.5s3.364-7.5 7.5-7.5 7.5 3.364 7.5 7.5-3.364 7.5-7.5 7.5zm0-10c-1.378 0-2.5 1.122-2.5 2.5s1.122 2.5 2.5 2.5 2.5-1.122 2.5-2.5-1.122-2.5-2.5-2.5z"/><path d="m165.562 72c-4.136 0-7.5-3.364-7.5-7.5s3.364-7.5 7.5-7.5 7.5 3.364 7.5 7.5-3.364 7.5-7.5 7.5zm0-10c-1.379 0-2.5 1.122-2.5 2.5s1.121 2.5 2.5 2.5 2.5-1.122 2.5-2.5-1.121-2.5-2.5-2.5z"/><path d="m187.361 106.379h-100.596c-.707 0-1.38-.299-1.854-.823s-.704-1.224-.633-1.927l5.508-54.812c.273-2.73 2.55-4.789 5.294-4.789h83.966c2.744 0 5.021 2.059 5.294 4.79l5.509 54.812c.071.703-.159 1.403-.633 1.927-.475.524-1.149.822-1.855.822zm-97.833-5h95.069l-5.232-52.062c-.017-.165-.154-.289-.319-.289h-83.966c-.166 0-.303.124-.319.289z"/><path d="m226.478 89h-40.863c-1.284 0-2.359-.973-2.487-2.25l-2.21-22c-.07-.703.159-1.403.633-1.927.475-.524 1.148-.823 1.854-.823h43.073c3.631 0 6.585 2.954 6.585 6.585v13.829c-.001 3.632-2.955 6.586-6.585 6.586zm-38.602-5h38.602c.859 0 1.585-.726 1.585-1.585v-13.83c0-.859-.726-1.585-1.585-1.585h-40.31z"/><path d="m224.562 106.379h-37.201c-1.284 0-2.359-.973-2.487-2.25l-1.747-17.379c-.071-.703.159-1.403.633-1.927.475-.524 1.147-.823 1.854-.823h38.948c1.381 0 2.5 1.119 2.5 2.5v17.379c0 1.381-1.119 2.5-2.5 2.5zm-34.939-5h32.439v-12.379h-33.685z"/><path d="m244.437 114.944h-171.433c-1.381 0-2.5-1.119-2.5-2.5s1.119-2.5 2.5-2.5h171.433c1.381 0 2.5 1.119 2.5 2.5s-1.119 2.5-2.5 2.5z"/></svg>