<svg height="462pt" viewBox="-54 0 462 462" width="462pt" xmlns="http://www.w3.org/2000/svg"><path d="m168.144531 280.632812c-2.050781.003907-3.996093-.894531-5.328125-2.453124l-13.332031-15.617188c-1.652344-1.898438-2.15625-4.535156-1.324219-6.910156.832032-2.375 2.875-4.121094 5.351563-4.570313 2.476562-.449219 5 .460938 6.617187 2.390625l8.902344 10.414063 25.75-20.949219c2.996094-2.441406 7.40625-1.988281 9.847656 1.011719 2.4375 3 1.984375 7.410156-1.011718 9.847656l-31.054688 25.265625c-1.246094 1.015625-2.808594 1.570312-4.417969 1.570312zm0 0" fill="#1ae5be"/><path d="m258.164062 0h-160.140624c-23.273438.0273438-42.132813 18.886719-42.160157 42.160156v13.019532c0 3.867187 3.132813 7 7 7 3.867188 0 7-3.132813 7-7v-13.023438c.019531-15.542969 12.617188-28.136719 28.160157-28.15625h160.140624c15.546876.019531 28.144532 12.613281 28.164063 28.160156v14.398438c0 3.867187 3.132813 7 7 7 3.863281 0 7-3.132813 7-7v-14.398438c-.027344-23.273437-18.886719-42.1328122-42.164063-42.160156zm0 0" fill="#0635c9"/><path d="m286.328125 366.894531h-216.464844v-216.464843h-14v269.414062c.027344 23.273438 18.890625 42.128906 42.160157 42.15625h160.140624c23.277344-.027344 42.136719-18.886719 42.164063-42.160156v-268.398438h-14zm0 52.949219c-.019531 15.542969-12.617187 28.136719-28.164063 28.15625h-160.140624c-15.542969-.019531-28.140626-12.613281-28.160157-28.160156v-38.945313h216.464844zm0 0" fill="#0635c9"/><path d="m156.660156 421.738281h42.871094c3.867188 0 7-3.132812 7-7 0-3.863281-3.132812-7-7-7h-42.871094c-3.867187 0-7 3.136719-7 7 0 3.867188 3.132813 7 7 7zm0 0" fill="#0635c9"/><path d="m244 261c0-37.003906-29.996094-67-67-67s-67 29.996094-67 67 29.996094 67 67 67c36.984375-.042969 66.957031-30.015625 67-67zm-120 0c0-29.269531 23.730469-53 53-53s53 23.730469 53 53-23.730469 53-53 53c-29.257812-.03125-52.96875-23.742188-53-53zm0 0" fill="#0635c9"/><path d="m353.96875 101.5c0-.027344 0-.054688 0-.082031-.03125-.3125-.085938-.625-.160156-.929688-.011719-.058593-.027344-.121093-.042969-.175781-.082031-.304688-.179687-.605469-.300781-.898438-.125-.289062-.269532-.574218-.429688-.847656-.035156-.054687-.066406-.113281-.101562-.167968-.164063-.265626-.347656-.523438-.546875-.765626-.015625-.019531-.035157-.035156-.046875-.054687-.199219-.230469-.414063-.445313-.640625-.652344-.027344-.023437-.050781-.054687-.078125-.078125l-53.890625-47.347656c-1.277344-1.121094-2.921875-1.742188-4.621094-1.742188h-230.246094c-1.65625 0-3.261719.589844-4.523437 1.660157l-55.867188 47.339843c-1.570312 1.339844-2.472656 3.304688-2.457031 5.367188 0 .101562-.015625.199219-.015625.300781v34.441407c0 1.085937.253906 2.160156.738281 3.132812l.050781.101562c6.875 13.277344 19.859376 22.308594 34.703126 24.128907 14.84375 1.820312 29.628906-3.804688 39.507812-15.03125 8.601562 9.761719 20.984375 15.351562 33.996094 15.351562 13.007812 0 25.390625-5.589843 33.992187-15.351562 8.585938 9.789062 20.984375 15.386719 34 15.359375 13.019531.027344 25.414063-5.570313 34-15.355469 8.605469 9.761719 20.988281 15.355469 34 15.355469 13.015625 0 25.398438-5.59375 34-15.355469 9.890625 11.234375 24.691407 16.859375 39.546875 15.023437 14.851563-1.832031 27.84375-10.886718 34.703125-24.1875.5-.984374.761719-2.074218.765625-3.179687v-34.757813c-.003906-.203124-.015625-.402343-.035156-.601562zm-288.539062-39.746094h225.042968l37.953125 33.347656h-302.339843zm247.570312 88.820313c-11.71875.121093-22.484375-6.429688-27.769531-16.886719-1.195313-2.335938-3.597657-3.808594-6.222657-3.8125s-5.03125 1.457031-6.238281 3.789062c-5.371093 10.386719-16.089843 16.90625-27.78125 16.902344-11.691406 0-22.40625-6.527344-27.777343-16.914062-1.203126-2.324219-3.601563-3.78125-6.21875-3.78125-2.617188.003906-5.019532 1.464844-6.222657 3.789062-5.371093 10.382813-16.085937 16.90625-27.773437 16.90625-11.691406 0-22.40625-6.523437-27.777344-16.90625-.042969-.082031-.089844-.171875-.136719-.25-1.269531-2.230468-3.65625-3.589844-6.222656-3.539062-2.566406.050781-4.898437 1.5-6.078125 3.78125-5.371094 10.382812-16.085938 16.90625-27.777344 16.90625s-22.40625-6.523438-27.777344-16.90625c-1.203124-2.324219-3.605468-3.78125-6.21875-3.78125-2.621093.003906-5.019531 1.464844-6.222656 3.789062-5.238281 10.128906-15.574218 16.605469-26.972656 16.902344s-22.054688-5.632812-27.8125-15.476562v-25.984376h326v25.980469c-5.523438 9.679688-15.855469 15.609375-27 15.492188zm0 0" fill="#1ae5be"/><g fill="#d4e1f4"><path d="m128.023438 14h-30c-15.542969.019531-28.140626 12.613281-28.160157 28.160156v5.601563h30v-5.601563c.019531-15.546875 12.617188-28.140625 28.160157-28.160156zm0 0"/><path d="m65.429688 61.753906-39.34375 33.34375h30l39.34375-33.34375zm0 0"/><path d="m99.863281 419.84375v-38.949219h-30v38.949219c.019531 15.542969 12.617188 28.136719 28.160157 28.15625h30c-15.542969-.019531-28.140626-12.613281-28.160157-28.15625zm0 0"/><path d="m75 149.199219c-1.574219 1.796875-3.292969 3.46875-5.132812 4.992187v212.699219h30v-203.265625c-9.644532-1.960938-18.378907-7.027344-24.867188-14.425781zm0 0"/><path d="m44 135.085938v-25.984376h-30v25.988282c5.523438 9.675781 15.859375 15.597656 27 15.476562 5.234375.023438 10.390625-1.265625 15-3.746094-5.011719-2.722656-9.164062-6.785156-12-11.734374zm0 0"/><path d="m111.214844 133.648438c-1.203125-2.320313-3.601563-3.777344-6.21875-3.777344-2.617188.003906-5.015625 1.464844-6.21875 3.789062-2.113282 4.121094-5.113282 7.722656-8.777344 10.550782 5.453125 4.160156 12.132812 6.394531 18.992188 6.347656 5.234374.023437 10.390624-1.265625 15-3.753906-5.488282-2.996094-9.941407-7.582032-12.777344-13.15625zm0 0"/><path d="m247.207031 133.652344c-1.203125-2.324219-3.601562-3.78125-6.21875-3.78125-2.621093.003906-5.019531 1.464844-6.222656 3.789062-2.113281 4.121094-5.109375 7.722656-8.777344 10.550782 5.453125 4.171874 12.136719 6.40625 19 6.355468 5.238281.023438 10.394531-1.265625 15-3.75-5.488281-3-9.941406-7.589844-12.78125-13.164062zm0 0"/><path d="m179.210938 133.660156c-.042969-.082031-.089844-.171875-.136719-.25-1.269531-2.230468-3.65625-3.589844-6.222657-3.539062-2.566406.050781-4.898437 1.5-6.078124 3.78125-2.113282 4.121094-5.113282 7.726562-8.785157 10.558594 5.453125 4.167968 12.136719 6.402343 19 6.355468 5.234375.023438 10.390625-1.265625 15-3.75-5.488281-3-9.941406-7.585937-12.777343-13.15625zm0 0"/><path d="m315.226562 133.6875c-1.199218-2.335938-3.597656-3.808594-6.222656-3.8125s-5.035156 1.457031-6.238281 3.789062c-2.113281 4.121094-5.113281 7.722657-8.78125 10.554688 5.457031 4.171875 12.148437 6.40625 19.015625 6.355469 5.234375.027343 10.390625-1.261719 15-3.75-5.484375-2.992188-9.9375-7.570313-12.773438-13.136719zm0 0"/></g></svg>