<svg enable-background="new 0 0 256 256" height="512" viewBox="0 0 256 256" width="512" xmlns="http://www.w3.org/2000/svg"><path d="m209.923 81.748-6.816 25.592c-.343 1.289-2.073 1.519-2.741.365l-6.309-10.889c-.414-.715-1.33-.959-2.045-.545l-10.889 6.309c-1.154.668-2.539-.392-2.196-1.68l1.375-5.163c-5.991-1.286-10.483-6.606-10.483-12.981 0 7.336-5.947 13.283-13.283 13.283-7.336 0-13.283-5.947-13.283-13.283 0 7.336-5.947 13.283-13.283 13.283s-13.283-5.947-13.283-13.283c0 7.336-5.947 13.283-13.283 13.283s-13.283-5.947-13.283-13.283c0 7.336-5.947 13.283-13.283 13.283-7.336 0-13.283-5.947-13.283-13.283 0 7.336-5.947 13.283-13.283 13.283-7.336 0-13.283-5.947-13.283-13.283 0 7.336-5.947 13.283-13.283 13.283-2.418 0-4.678-.656-6.63-1.785v114.671c0 5.506 4.479 9.985 9.985 9.985h178.361c5.506 0 9.985-4.479 9.985-9.985v-106.587z" fill="#2a4a97"/><path d="m17.076 192.96v15.965c0 5.506 4.479 9.985 9.985 9.985h178.361c5.506 0 9.985-4.479 9.985-9.985v-15.965z" fill="#c5e3ff"/><path d="m94.149 218.911h44.13v24.207h-44.13z" fill="#94bdea"/><path d="m147.361 248.309c0-2.867-2.324-5.191-5.191-5.191h-51.911c-2.867 0-5.191 2.324-5.191 5.191 0 2.867 2.324 5.191 5.191 5.191h51.911c2.866 0 5.191-2.324 5.191-5.191z" fill="#c5e3ff"/><circle cx="116.241" cy="205.482" fill="#94bdea" r="4.441"/><path d="m203.107 107.34c-.343 1.289-2.073 1.519-2.741.365l-6.309-10.889c-.414-.715-1.33-.959-2.045-.545l-10.889 6.309c-1.154.668-2.539-.392-2.196-1.68l1.375-5.163c-5.99-1.287-10.483-6.607-10.483-12.982 0 7.336-5.947 13.283-13.283 13.283-7.336 0-13.283-5.947-13.283-13.283 0 7.336-5.947 13.283-13.283 13.283s-13.283-5.947-13.283-13.283c0 7.336-5.947 13.283-13.283 13.283s-13.283-5.947-13.283-13.283c0 7.336-5.947 13.283-13.283 13.283s-13.283-5.947-13.283-13.283c0 7.336-5.947 13.283-13.283 13.283s-13.283-5.947-13.283-13.283c0 6.199-4.252 11.388-9.995 12.853v97.352h178.494v-94.56z" fill="#edf4fc"/><path d="m203.107 107.34c-.343 1.289-2.073 1.519-2.741.365l-6.309-10.889c-.414-.715-1.33-.959-2.045-.545l-10.889 6.309c-1.154.668-2.54-.392-2.196-1.68l1.375-5.163c-5.99-1.287-10.483-6.607-10.483-12.982 0 7.336-5.947 13.283-13.283 13.283-7.336 0-13.283-5.947-13.283-13.283 0 7.336-5.947 13.283-13.283 13.283s-13.283-5.947-13.283-13.283c0 7.336-5.947 13.283-13.283 13.283s-13.283-5.947-13.283-13.283c0 7.336-5.947 13.283-13.283 13.283s-13.283-5.947-13.283-13.283c0 7.336-5.947 13.283-13.283 13.283s-13.283-5.947-13.283-13.283c0 6.199-4.252 11.388-9.995 12.853v35.392h54.367c5.448-14.285 19.267-24.436 35.465-24.436s30.017 10.151 35.465 24.436h53.196v-32.6z" fill="#45bdf0"/><circle cx="116.827" cy="144.516" fill="#facb35" r="37.952"/><path d="m100.983 137.469c.321 0 .635.027.943.075v-.696c0-.003 0-.007 0-.01 0-.494.464-.859.948-.757 2.661.557 10.575 1.509 15.94-5.238.294-.37.838-.405 1.176-.074 1.235 1.211 4.45 3.629 10.552 3.808.416.012.75.356.758.772.002.076.002.153.002.23v1.965c.307-.048.622-.075.943-.075 1.653 0 3.15.657 4.253 1.721v-11.03c0-4.615-3.775-8.39-8.39-8.39-1.565 0-3.028.442-4.286 1.196-1.469-2.451-4.145-4.106-7.195-4.106h-4.308c-8.338 0-15.161 6.822-15.161 15.161v6.793c1.048-.84 2.377-1.345 3.825-1.345z" fill="#843418"/><g fill="#f9c1a8"><path d="m132.244 137.469c-.321 0-.635.029-.943.076v.995 10.124c0 .331-.015.659-.037.985.32.052.645.085.98.085 3.387 0 6.132-2.746 6.132-6.132s-2.746-6.133-6.132-6.133z"/><path d="m101.925 138.54v-.995c-.308-.047-.622-.076-.943-.076-3.387 0-6.132 2.746-6.132 6.132s2.746 6.132 6.132 6.132c.334 0 .66-.034.98-.085-.022-.326-.037-.654-.037-.985z"/><path d="m118.813 130.843c-5.365 6.746-13.279 5.794-15.94 5.238-.484-.101-.947.263-.948.757v.01 11.815c0 8.078 6.61 14.688 14.688 14.688 8.078 0 14.688-6.61 14.688-14.688v-13.083c0-.077-.001-.153-.002-.23-.008-.417-.342-.76-.758-.772-6.102-.179-9.317-2.597-10.552-3.808-.338-.331-.882-.296-1.176.073z"/><path d="m116.613 163.351c-2.352 0-4.577-.563-6.553-1.557v5.436l2.914 6.469c.227.503.727.827 1.279.827h4.925c.538 0 1.028-.307 1.262-.791l3.153-6.504v-5.656c-2.079 1.132-4.458 1.776-6.98 1.776z"/></g><path d="m116.827 182.468c9.401 0 17.996-3.425 24.625-9.086l-10.997-2.768-6.862-3.383-3.153 6.504c-.234.484-.725.791-1.262.791-.14 0-4.955 0-4.925 0-.552 0-1.052-.324-1.279-.826l-2.914-6.469-6.862 3.383-10.997 2.768c6.63 5.66 15.225 9.086 24.626 9.086z" fill="#1387ce"/><path d="m23.706 96.039c-7.336 0-13.283-5.947-13.283-13.283v-14.281h26.566v14.281c0 7.336-5.947 13.283-13.283 13.283z" fill="#facb35"/><path d="m50.272 96.039c-7.336 0-13.283-5.947-13.283-13.283v-14.281h26.566v14.281c0 7.336-5.947 13.283-13.283 13.283z" fill="#f9677f"/><path d="m76.838 96.039c-7.336 0-13.283-5.947-13.283-13.283v-14.281h26.566v14.281c0 7.336-5.947 13.283-13.283 13.283z" fill="#facb35"/><path d="m103.404 96.039c-7.336 0-13.283-5.947-13.283-13.283v-14.281h26.566v14.281c0 7.336-5.947 13.283-13.283 13.283z" fill="#f9677f"/><path d="m36.989 68.472h-26.566l14.257-21.188h23.002z" fill="#fcac27"/><path d="m63.555 68.472h-26.566l10.693-21.188h23.002z" fill="#fc3850"/><path d="m90.121 68.472h-26.566l7.129-21.188h23.001z" fill="#fcac27"/><path d="m187.563 68.476h-17.744v14.28c0 6.375 4.493 11.695 10.483 12.982z" fill="#facb35"/><path d="m156.536 96.039c7.336 0 13.283-5.947 13.283-13.283v-14.281h-26.566v14.281c0 7.336 5.947 13.283 13.283 13.283z" fill="#f9677f"/><path d="m129.97 96.039c7.336 0 13.283-5.947 13.283-13.283v-14.281h-26.566v14.281c0 7.336 5.947 13.283 13.283 13.283z" fill="#facb35"/><path d="m188.127 66.359c-6.109-4.728-10.642-11.391-12.672-19.075h-12.765l7.129 21.188h17.745z" fill="#fcac27"/><path d="m143.253 68.472h26.566l-7.129-21.188h-23.002z" fill="#fc3850"/><path d="m116.687 68.472h26.566l-3.565-21.188h-23.001z" fill="#fcac27"/><path d="m116.687 68.472h-26.566l3.564-21.188h23.002z" fill="#fc3850"/><path d="m174.269 38.154c0-.42.017-.835.032-1.251-47.801 0-129.51 0-149.042 0-2.867 0-5.191 2.324-5.191 5.191s2.324 5.191 5.191 5.191h150.196c-.771-2.915-1.186-5.974-1.186-9.131z" fill="#c5e3ff"/><path d="m209.923 73.807c19.691 0 35.654-15.963 35.654-35.654 0-19.691-15.963-35.654-35.654-35.654-19.691 0-35.654 15.963-35.654 35.654 0 19.692 15.963 35.654 35.654 35.654z" fill="#f9d87a"/><path d="m209.923 62.913c13.674 0 24.76-11.085 24.76-24.76 0-13.674-11.085-24.76-24.759-24.76-13.674 0-24.759 11.085-24.759 24.76-.001 13.675 11.084 24.76 24.758 24.76z" fill="#facb35"/><path d="m224.286 36.414c1.842-1.796.826-4.925-1.72-5.295l-5.198-.755c-1.011-.147-1.885-.782-2.337-1.698l-2.325-4.71c-1.139-2.307-4.428-2.307-5.567 0l-2.325 4.71c-.452.916-1.326 1.551-2.337 1.698l-5.198.755c-2.546.37-3.563 3.499-1.72 5.295l3.761 3.666c.732.713 1.066 1.74.893 2.747l-.888 5.177c-.435 2.536 2.227 4.469 4.504 3.272l4.649-2.444c.904-.475 1.985-.475 2.889 0l4.649 2.444c2.277 1.197 4.939-.736 4.504-3.272l-.888-5.177c-.173-1.007.161-2.034.893-2.747z" fill="#fcac27"/><path d="m231.72 66.359c-6.028 4.665-13.585 7.448-21.797 7.448-.717 0-1.427-.028-2.133-.069l8.95 33.602c.343 1.289 2.073 1.519 2.741.365l6.309-10.889c.414-.715 1.33-.959 2.045-.545l10.889 6.309c1.154.668 2.539-.392 2.196-1.68z" fill="#fc3850"/><path d="m188.127 66.359-9.2 34.541c-.343 1.288 1.043 2.348 2.196 1.68l10.889-6.309c.715-.414 1.631-.17 2.045.545l6.309 10.889c.668 1.154 2.398.924 2.741-.365l6.816-25.592-2.133-8.01c-7.386-.436-14.162-3.121-19.663-7.379z" fill="#fc3850"/><path d="m205.422 221.41h-178.361c-6.884 0-12.484-5.601-12.484-12.484v-15.966c0-1.381 1.119-2.5 2.5-2.5h198.331c1.381 0 2.5 1.119 2.5 2.5v15.966c-.001 6.884-5.601 12.484-12.486 12.484zm-185.846-25.95v13.466c0 4.127 3.357 7.484 7.484 7.484h178.361c4.127 0 7.485-3.357 7.485-7.484v-13.466z"/><path d="m205.422 221.41h-178.361c-6.885 0-12.485-5.601-12.485-12.484v-114.672c0-.894.477-1.719 1.251-2.165.771-.447 1.727-.446 2.5.001 1.641.948 3.501 1.449 5.38 1.449 5.946 0 10.783-4.837 10.783-10.783 0-1.381 1.119-2.5 2.5-2.5s2.5 1.119 2.5 2.5c0 5.946 4.837 10.783 10.783 10.783 5.945 0 10.782-4.837 10.782-10.783 0-1.381 1.119-2.5 2.5-2.5s2.5 1.119 2.5 2.5c0 5.946 4.837 10.783 10.783 10.783s10.783-4.837 10.783-10.783c0-1.381 1.119-2.5 2.5-2.5s2.5 1.119 2.5 2.5c0 5.946 4.837 10.783 10.783 10.783 5.945 0 10.782-4.837 10.782-10.783 0-1.381 1.119-2.5 2.5-2.5s2.5 1.119 2.5 2.5c0 5.946 4.837 10.783 10.783 10.783s10.783-4.837 10.783-10.783c0-1.381 1.119-2.5 2.5-2.5s2.5 1.119 2.5 2.5c0 5.946 4.837 10.783 10.783 10.783 5.945 0 10.782-4.837 10.782-10.783 0-1.381 1.119-2.5 2.5-2.5s2.5 1.119 2.5 2.5c0 5.047 3.578 9.479 8.508 10.537.669.144 1.25.556 1.607 1.139s.46 1.288.284 1.949l-.752 2.821 8.794-5.094c1.906-1.104 4.355-.452 5.461 1.455l5.095 8.792 6.191-23.251c.292-1.095 1.283-1.856 2.416-1.856s2.124.762 2.416 1.856l5.484 20.59c.056.21.084.427.084.644v106.588c.002 6.884-5.598 12.484-12.483 12.484zm-185.847-123.427v110.942c0 4.127 3.358 7.484 7.485 7.484h178.361c4.127 0 7.485-3.357 7.485-7.484v-106.26l-2.984-11.203-4.399 16.521c-.419 1.568-1.729 2.72-3.337 2.934-1.606.215-3.172-.556-3.984-1.96l-5.805-10.02-10.021 5.806c-1.402.814-3.144.7-4.431-.284-1.289-.985-1.852-2.635-1.435-4.201l.757-2.841c-3.092-1.237-5.679-3.423-7.439-6.16-2.808 4.376-7.717 7.282-13.292 7.282-5.569 0-10.473-2.898-13.283-7.267-2.811 4.368-7.714 7.267-13.283 7.267-5.568 0-10.473-2.899-13.283-7.267-2.81 4.367-7.714 7.267-13.282 7.267-5.569 0-10.473-2.898-13.283-7.267-2.811 4.368-7.714 7.267-13.283 7.267-5.568 0-10.473-2.899-13.283-7.267-2.81 4.367-7.714 7.267-13.282 7.267-5.569 0-10.473-2.898-13.283-7.267-2.811 4.368-7.714 7.267-13.283 7.267-1.399 0-2.789-.188-4.133-.556z"/><path d="m23.706 98.539c-8.703 0-15.783-7.08-15.783-15.783v-14.28c0-1.381 1.119-2.5 2.5-2.5h26.566c1.381 0 2.5 1.119 2.5 2.5v14.28c0 8.703-7.08 15.783-15.783 15.783zm-10.783-27.563v11.78c0 5.946 4.837 10.783 10.783 10.783s10.783-4.837 10.783-10.783v-11.78z"/><path d="m50.272 98.539c-8.703 0-15.783-7.08-15.783-15.783v-14.28c0-1.381 1.119-2.5 2.5-2.5h26.565c1.381 0 2.5 1.119 2.5 2.5v14.28c.001 8.703-7.079 15.783-15.782 15.783zm-10.783-27.563v11.78c0 5.946 4.837 10.783 10.783 10.783 5.945 0 10.782-4.837 10.782-10.783v-11.78z"/><path d="m76.838 98.539c-8.703 0-15.783-7.08-15.783-15.783v-14.28c0-1.381 1.119-2.5 2.5-2.5h26.566c1.381 0 2.5 1.119 2.5 2.5v14.28c0 8.703-7.08 15.783-15.783 15.783zm-10.783-27.563v11.78c0 5.946 4.837 10.783 10.783 10.783s10.783-4.837 10.783-10.783v-11.78z"/><path d="m103.404 98.539c-8.703 0-15.783-7.08-15.783-15.783v-14.28c0-1.381 1.119-2.5 2.5-2.5h26.565c1.381 0 2.5 1.119 2.5 2.5v14.28c.001 8.703-7.08 15.783-15.782 15.783zm-10.783-27.563v11.78c0 5.946 4.837 10.783 10.783 10.783 5.945 0 10.782-4.837 10.782-10.783v-11.78z"/><path d="m36.989 70.972h-26.566c-.924 0-1.772-.51-2.207-1.325-.434-.815-.383-1.804.133-2.57l14.258-21.188c.465-.69 1.242-1.104 2.074-1.104h23.001c.868 0 1.674.45 2.129 1.189s.494 1.662.103 2.437l-10.693 21.187c-.425.842-1.288 1.374-2.232 1.374zm-21.871-5h20.332l8.17-16.188h-17.608z"/><path d="m63.555 70.972h-26.566c-.868 0-1.674-.45-2.129-1.189s-.494-1.662-.103-2.437l10.693-21.188c.425-.843 1.288-1.374 2.231-1.374h23.002c.805 0 1.561.388 2.03 1.041s.596 1.493.339 2.256l-7.129 21.188c-.341 1.017-1.295 1.703-2.368 1.703zm-22.504-5h20.707l5.447-16.188h-17.984z"/><path d="m90.121 70.972h-26.566c-.805 0-1.561-.388-2.03-1.041s-.596-1.493-.339-2.256l7.129-21.188c.342-1.018 1.296-1.703 2.369-1.703h23.002c.735 0 1.434.324 1.909.886s.678 1.304.557 2.029l-3.564 21.188c-.204 1.203-1.246 2.085-2.467 2.085zm-23.088-5h20.974l2.723-16.188h-18.25z"/><path d="m205.488 195.461h-178.494c-1.381 0-2.5-1.119-2.5-2.5v-97.353c0-1.143.774-2.14 1.882-2.423 4.777-1.218 8.113-5.507 8.113-10.43 0-1.381 1.119-2.5 2.5-2.5s2.5 1.119 2.5 2.5c0 5.946 4.837 10.783 10.783 10.783 5.945 0 10.782-4.837 10.782-10.783 0-1.381 1.119-2.5 2.5-2.5s2.5 1.119 2.5 2.5c0 5.946 4.837 10.783 10.783 10.783s10.783-4.837 10.783-10.783c0-1.381 1.119-2.5 2.5-2.5s2.5 1.119 2.5 2.5c0 5.946 4.837 10.783 10.783 10.783 5.945 0 10.782-4.837 10.782-10.783 0-1.381 1.119-2.5 2.5-2.5s2.5 1.119 2.5 2.5c0 5.946 4.837 10.783 10.783 10.783s10.783-4.837 10.783-10.783c0-1.381 1.119-2.5 2.5-2.5s2.5 1.119 2.5 2.5c0 5.946 4.837 10.783 10.783 10.783 5.945 0 10.782-4.837 10.782-10.783 0-1.381 1.119-2.5 2.5-2.5s2.5 1.119 2.5 2.5c0 5.047 3.578 9.479 8.509 10.538.669.144 1.249.556 1.606 1.139.357.584.46 1.288.284 1.949l-.752 2.82 8.794-5.094c1.906-1.104 4.355-.452 5.461 1.455l5.095 8.792 1.757-6.599c.323-1.213 1.492-2.002 2.74-1.835 1.245.162 2.176 1.224 2.176 2.479v94.561c.002 1.382-1.117 2.501-2.498 2.501zm-175.994-5h173.494v-79.735c-.256.09-.524.154-.802.191-1.606.215-3.172-.556-3.984-1.96l-5.805-10.02-10.021 5.806c-1.402.814-3.144.7-4.431-.284-1.289-.985-1.852-2.635-1.435-4.201l.757-2.841c-3.093-1.236-5.679-3.422-7.439-6.16-2.808 4.376-7.717 7.282-13.292 7.282-5.569 0-10.473-2.898-13.283-7.267-2.811 4.368-7.714 7.267-13.283 7.267-5.568 0-10.473-2.899-13.283-7.267-2.81 4.367-7.714 7.267-13.282 7.267-5.569 0-10.473-2.898-13.283-7.267-2.811 4.368-7.714 7.267-13.283 7.267-5.568 0-10.473-2.899-13.283-7.267-2.81 4.367-7.714 7.267-13.282 7.267-5.567 0-10.472-2.898-13.282-7.266-1.761 2.739-4.36 4.919-7.496 6.15v93.038zm171.199-83.77c-.001.002-.001.003-.002.004z"/><path d="m138.279 245.618h-44.13c-1.381 0-2.5-1.119-2.5-2.5v-24.208c0-1.381 1.119-2.5 2.5-2.5h44.13c1.381 0 2.5 1.119 2.5 2.5v24.208c0 1.381-1.119 2.5-2.5 2.5zm-41.63-5h39.13v-19.208h-39.13z"/><path d="m180.304 98.238c-.174 0-.351-.018-.527-.056-7.219-1.551-12.458-8.039-12.458-15.427v-14.28c0-1.381 1.119-2.5 2.5-2.5h17.745c.776 0 1.509.361 1.982.977s.633 1.416.434 2.167l-7.262 27.263c-.297 1.113-1.305 1.856-2.414 1.856zm-7.986-27.262v11.78c0 4.237 2.522 8.041 6.249 9.779l5.743-21.56h-11.992z"/><path d="m156.536 98.539c-8.703 0-15.783-7.08-15.783-15.783v-14.28c0-1.381 1.119-2.5 2.5-2.5h26.565c1.381 0 2.5 1.119 2.5 2.5v14.28c0 8.703-7.08 15.783-15.782 15.783zm-10.783-27.563v11.78c0 5.946 4.837 10.783 10.783 10.783 5.945 0 10.782-4.837 10.782-10.783v-11.78z"/><path d="m129.97 98.539c-8.703 0-15.783-7.08-15.783-15.783v-14.28c0-1.381 1.119-2.5 2.5-2.5h26.566c1.381 0 2.5 1.119 2.5 2.5v14.28c0 8.703-7.08 15.783-15.783 15.783zm-10.783-27.563v11.78c0 5.946 4.837 10.783 10.783 10.783s10.783-4.837 10.783-10.783v-11.78z"/><path d="m187.564 70.972h-17.746c-1.073 0-2.027-.686-2.369-1.703l-7.128-21.188c-.257-.763-.131-1.603.339-2.256s1.226-1.041 2.03-1.041h12.764c1.135 0 2.127.765 2.417 1.861 1.845 6.983 6.03 13.282 11.786 17.737.795.615 1.145 1.647.886 2.62l-.562 2.112c-.293 1.096-1.284 1.858-2.417 1.858zm-15.949-5h12.212c-4.721-4.438-8.274-10.043-10.246-16.188h-7.412z"/><path d="m169.818 70.972h-26.565c-1.221 0-2.263-.882-2.466-2.085l-3.564-21.188c-.121-.726.082-1.468.557-2.029.476-.562 1.174-.886 1.909-.886h23.002c1.073 0 2.027.686 2.369 1.703l7.128 21.188c.257.763.131 1.603-.339 2.256s-1.226 1.041-2.031 1.041zm-24.451-5h20.973l-5.446-16.188h-18.249z"/><path d="m143.253 70.972h-26.566c-1.381 0-2.5-1.119-2.5-2.5v-21.188c0-1.381 1.119-2.5 2.5-2.5h23.002c1.221 0 2.263.882 2.466 2.085l3.564 21.188c.121.726-.082 1.468-.557 2.029s-1.174.886-1.909.886zm-24.066-5h21.11l-2.723-16.188h-18.388v16.188z"/><path d="m175.454 49.784h-150.195c-4.241 0-7.691-3.45-7.691-7.69 0-4.241 3.45-7.691 7.691-7.691h149.042c.678 0 1.325.274 1.797.762.471.486.724 1.144.702 1.82l-.008.229c-.011.312-.022.625-.022.94 0 2.865.371 5.723 1.102 8.492.198.749.037 1.549-.437 2.163s-1.206.975-1.981.975zm-150.195-10.382c-1.484 0-2.691 1.207-2.691 2.691 0 1.483 1.207 2.69 2.691 2.69h147.09c-.313-1.777-.5-3.576-.559-5.382h-146.531z"/><path d="m116.687 70.972h-26.566c-.735 0-1.434-.324-1.909-.886s-.678-1.304-.557-2.029l3.564-21.188c.203-1.203 1.245-2.085 2.466-2.085h23.001c1.381 0 2.5 1.119 2.5 2.5v21.188c.001 1.381-1.119 2.5-2.499 2.5zm-23.61-5h21.109v-16.188h-18.386z"/><path d="m209.923 76.308c-21.038 0-38.153-17.116-38.153-38.154s17.115-38.154 38.153-38.154 38.154 17.115 38.154 38.153-17.116 38.155-38.154 38.155zm0-71.308c-18.281 0-33.153 14.872-33.153 33.153s14.872 33.154 33.153 33.154 33.154-14.873 33.154-33.154-14.873-33.153-33.154-33.153z"/><path d="m218.191 110.952c-.177 0-.354-.012-.533-.035-1.607-.214-2.916-1.365-3.335-2.933l-8.949-33.603c-.206-.775-.028-1.604.479-2.226.508-.621 1.278-.967 2.085-.913.657.039 1.317.064 1.984.064 7.405 0 14.413-2.395 20.267-6.925.662-.513 1.536-.661 2.331-.392.793.268 1.399.915 1.615 1.725l9.199 34.541c.418 1.565-.145 3.215-1.432 4.201-1.288.986-3.028 1.097-4.433.286l-10.021-5.807-5.806 10.021c-.721 1.25-2.038 1.996-3.451 1.996zm-7.133-34.661 7.474 28.064 5.095-8.792c.535-.924 1.397-1.584 2.429-1.858 1.031-.275 2.108-.132 3.032.403l8.793 5.094-7.656-28.744c-5.756 3.638-12.299 5.635-19.167 5.833z"/><path d="m201.655 110.952c-1.414 0-2.73-.746-3.453-1.995l-5.805-10.02-10.021 5.806c-1.402.814-3.144.7-4.431-.284-1.289-.985-1.852-2.634-1.435-4.201l9.2-34.542c.216-.81.822-1.457 1.615-1.725.793-.27 1.668-.121 2.331.392 5.289 4.094 11.61 6.466 18.28 6.859 1.076.064 1.991.811 2.269 1.853l2.133 8.01c.112.422.112.865 0 1.287l-6.815 25.592c-.419 1.568-1.729 2.72-3.337 2.934-.177.022-.355.034-.531.034zm-8.899-17.384c.346 0 .693.045 1.036.137 1.031.274 1.894.935 2.429 1.858l5.095 8.792 6.021-22.607-1.509-5.664c-5.784-.618-11.301-2.537-16.204-5.629l-7.657 28.747 8.794-5.094c.615-.357 1.301-.54 1.995-.54z"/><path d="m132.244 152.234c-.437 0-.888-.039-1.379-.118-1.276-.206-2.185-1.351-2.096-2.64.019-.27.031-.54.031-.812v-11.119c0-1.235.902-2.285 2.123-2.472.463-.07.895-.104 1.32-.104 4.76 0 8.632 3.873 8.632 8.633s-3.871 8.632-8.631 8.632zm1.557-11.915v6.564c1.226-.584 2.075-1.836 2.075-3.282s-.85-2.698-2.075-3.282z"/><path d="m100.982 152.234c-4.76 0-8.632-3.873-8.632-8.633s3.872-8.633 8.632-8.633c.426 0 .857.034 1.32.104 1.221.187 2.123 1.236 2.123 2.472v11.119c0 .272.013.543.031.812.089 1.289-.819 2.434-2.096 2.64-.49.08-.941.119-1.378.119zm-1.556-11.915c-1.226.584-2.075 1.836-2.075 3.282s.85 2.698 2.075 3.282z"/><path d="m116.613 165.852c-9.478 0-17.188-7.711-17.188-17.188v-11.814c0-.999.441-1.924 1.211-2.548.773-.629 1.776-.872 2.75-.666 2.58.54 9.06 1.196 13.468-4.346.581-.731 1.447-1.184 2.378-1.241.907-.056 1.843.284 2.508.938.895.876 3.553 2.937 8.874 3.093 1.751.05 3.151 1.466 3.185 3.224l.002.276v13.084c0 9.477-7.71 17.188-17.188 17.188zm-12.187-27.008v9.819c0 6.721 5.468 12.188 12.188 12.188s12.188-5.468 12.188-12.188v-11.688c-4.413-.42-7.369-1.918-9.187-3.255-5.05 5.231-11.536 5.497-15.189 5.124zm-2.065-.316h.003c-.001 0-.002 0-.003 0zm28.105-1.451h.005c-.002 0-.004 0-.005 0zm-12.228-4.522c.001.001.002.002.003.003-.001-.001-.002-.002-.003-.003zm2.533-.157c-.001.001-.001.001 0 0-.002.002-.003.003-.003.003.001-.001.002-.002.003-.003zm-1.959-1.554h.01z"/><path d="m136.498 141.69c-.636 0-1.261-.242-1.736-.7-.814-.785-1.897-1.167-3.077-.976-.722.11-1.455-.097-2.01-.572s-.874-1.168-.874-1.898v-.569c-4.414-.42-7.369-1.918-9.187-3.255-5.212 5.398-11.95 5.507-15.53 5.087-.14.237-.318.453-.532.636-.555.476-1.288.685-2.01.572-1.066-.17-2.03.117-2.822.751-.75.603-1.78.718-2.645.303-.867-.417-1.418-1.293-1.418-2.254v-6.794c0-9.738 7.922-17.66 17.66-17.66h4.309c3.032 0 5.927 1.302 7.971 3.5 1.129-.389 2.314-.59 3.511-.59 6.005 0 10.89 4.885 10.89 10.89v11.03c0 1.003-.6 1.909-1.522 2.301-.317.133-.649.198-.978.198zm-34.137-3.162h.003c-.001 0-.002 0-.003 0zm28.105-1.451h.005c-.002 0-.003 0-.005 0zm3.323-1.969c.069.012.139.025.208.04v-6.988c0-3.248-2.642-5.89-5.89-5.89-1.048 0-2.085.29-2.999.84-.569.342-1.252.443-1.894.281-.644-.16-1.197-.571-1.538-1.141-1.068-1.783-3.004-2.891-5.051-2.891h-4.309c-6.98 0-12.66 5.68-12.66 12.66v3.053c.104-.017.209-.031.314-.043.181-.272.404-.519.665-.729.773-.629 1.776-.872 2.75-.666 2.58.54 9.061 1.196 13.469-4.347.58-.73 1.446-1.183 2.377-1.24.907-.056 1.843.284 2.508.938.895.876 3.553 2.937 8.874 3.093 1.688.049 3.048 1.363 3.176 3.03zm-15.551-2.553c.001.001.002.002.003.003-.001-.001-.002-.002-.003-.003zm2.533-.157c-.001.001-.001.001-.002.002 0 0 .001-.001.002-.002z"/><path d="m119.179 177.026h-4.926c-1.531 0-2.928-.903-3.558-2.301l-2.914-6.469c-.146-.322-.221-.672-.221-1.026v-5.436c0-.867.449-1.673 1.188-2.128.74-.455 1.66-.496 2.436-.105 1.703.855 3.529 1.29 5.43 1.29 2.016 0 4.016-.509 5.785-1.472.774-.421 1.714-.404 2.473.046.758.451 1.223 1.268 1.223 2.149v5.655c0 .378-.086.751-.25 1.091l-3.153 6.505c-.65 1.338-2.028 2.201-3.513 2.201zm-4.216-5h3.527l2.604-5.37v-1.403c-2.786.757-5.773.79-8.533.114v1.326z"/><path d="m110.046 154.091c-.773-1.145-.473-2.698.672-3.471 1.143-.773 2.699-.472 3.471.672 1.263 1.87 4.013 1.869 5.276 0 .772-1.144 2.328-1.444 3.471-.672 1.145.772 1.445 2.326.672 3.471-3.24 4.796-10.313 4.81-13.562 0z"/><path d="m111.229 146.1c-1.385 0-2.5-1.097-2.5-2.5 0-1.232.894-2.239 2.011-2.45 1.502-.315 2.989.874 2.989 2.45 0 1.41-1.164 2.5-2.5 2.5z"/><path d="m122.43 146.1c-1.446 0-2.5-1.174-2.5-2.5 0-1.222.88-2.235 2.01-2.45 1.497-.314 2.99.867 2.99 2.45 0 1.365-1.123 2.5-2.5 2.5z"/><path d="m116.827 184.968c-22.306 0-40.452-18.146-40.452-40.452s18.146-40.452 40.452-40.452c22.305 0 40.451 18.146 40.451 40.452s-18.146 40.452-40.451 40.452zm0-75.905c-19.549 0-35.452 15.903-35.452 35.452s15.903 35.452 35.452 35.452c19.548 0 35.451-15.903 35.451-35.452s-15.903-35.452-35.451-35.452z"/><path d="m116.827 184.968c-9.612 0-18.934-3.439-26.249-9.685-.712-.607-1.024-1.561-.812-2.472.214-.91.917-1.626 1.824-1.854l10.74-2.702 6.624-3.267c.608-.299 1.312-.34 1.95-.11.639.229 1.156.707 1.435 1.326l2.623 5.821h3.528l2.853-5.886c.291-.599.809-1.058 1.438-1.273.629-.218 1.32-.172 1.917.122l6.623 3.267 10.74 2.702c.907.229 1.61.944 1.824 1.854.213.911-.1 1.864-.812 2.472-7.311 6.245-16.634 9.685-26.246 9.685zm-18.88-10.454c5.626 3.542 12.173 5.454 18.88 5.454s13.254-1.911 18.879-5.454l-5.861-1.475c-.171-.044-.337-.104-.495-.183l-4.604-2.271-2.055 4.24c-.648 1.336-2.026 2.199-3.512 2.199h-4.926c-1.532 0-2.929-.902-3.558-2.3l-1.851-4.108-4.541 2.239c-.158.078-.324.139-.495.183z"/><path d="m205.488 133.5h-53.196c-1.037 0-1.967-.641-2.336-1.609-5.206-13.653-18.52-22.826-33.129-22.826s-27.923 9.173-33.129 22.826c-.369.969-1.299 1.609-2.336 1.609h-54.368c-1.381 0-2.5-1.119-2.5-2.5v-35.392c0-1.143.774-2.14 1.882-2.423 4.777-1.218 8.113-5.507 8.113-10.43 0-1.381 1.119-2.5 2.5-2.5s2.5 1.119 2.5 2.5c0 5.946 4.837 10.783 10.783 10.783 5.945 0 10.782-4.837 10.782-10.783 0-1.381 1.119-2.5 2.5-2.5s2.5 1.119 2.5 2.5c0 5.946 4.837 10.783 10.783 10.783s10.783-4.837 10.783-10.783c0-1.381 1.119-2.5 2.5-2.5s2.5 1.119 2.5 2.5c0 5.946 4.837 10.783 10.783 10.783 5.945 0 10.782-4.837 10.782-10.783 0-1.381 1.119-2.5 2.5-2.5s2.5 1.119 2.5 2.5c0 5.946 4.837 10.783 10.783 10.783s10.783-4.837 10.783-10.783c0-1.381 1.119-2.5 2.5-2.5s2.5 1.119 2.5 2.5c0 5.946 4.837 10.783 10.782 10.783 5.946 0 10.783-4.837 10.783-10.783 0-1.381 1.119-2.5 2.5-2.5s2.5 1.119 2.5 2.5c0 5.047 3.578 9.479 8.509 10.538.669.144 1.249.556 1.606 1.139.357.584.46 1.288.284 1.949l-.752 2.82 8.794-5.094c1.906-1.104 4.354-.45 5.46 1.453l5.095 8.793 1.758-6.598c.324-1.214 1.501-1.997 2.74-1.835 1.245.163 2.176 1.224 2.176 2.479v32.601c.002 1.381-1.117 2.5-2.498 2.5zm-51.514-5h49.015v-17.774c-.256.09-.523.154-.801.191-1.6.211-3.173-.555-3.985-1.96l-5.805-10.02-10.021 5.806c-1.402.814-3.144.7-4.431-.284-1.289-.985-1.852-2.634-1.435-4.201l.757-2.841c-3.093-1.236-5.679-3.422-7.439-6.16-2.808 4.376-7.717 7.282-13.292 7.282-5.569 0-10.473-2.898-13.283-7.267-2.811 4.368-7.714 7.267-13.283 7.267-5.568 0-10.473-2.899-13.283-7.267-2.81 4.367-7.714 7.267-13.282 7.267-5.569 0-10.473-2.898-13.283-7.267-2.811 4.368-7.714 7.267-13.283 7.267-5.568 0-10.473-2.899-13.283-7.267-2.81 4.367-7.714 7.267-13.282 7.267-5.567 0-10.472-2.898-13.282-7.266-1.761 2.739-4.36 4.919-7.496 6.15v31.077h50.187c6.347-14.686 21.058-24.436 37.146-24.436s30.797 9.75 37.144 24.436z"/><path d="m192.577 145h-8c-1.381 0-2.5-1.119-2.5-2.5s1.119-2.5 2.5-2.5h8c1.381 0 2.5 1.119 2.5 2.5s-1.119 2.5-2.5 2.5z"/><path d="m209.923 65.413c-15.03 0-27.259-12.229-27.259-27.26 0-15.03 12.229-27.259 27.259-27.259 15.031 0 27.26 12.229 27.26 27.259 0 15.032-12.229 27.26-27.26 27.26zm0-49.518c-12.273 0-22.259 9.985-22.259 22.259s9.985 22.26 22.259 22.26 22.26-9.985 22.26-22.26c0-12.274-9.986-22.259-22.26-22.259z"/><path d="m202.38 54.139c-1.157 0-2.307-.362-3.289-1.076-1.738-1.264-2.593-3.364-2.229-5.481l.888-5.177c.033-.195-.031-.396-.174-.534l-3.762-3.666c-1.538-1.5-2.082-3.701-1.418-5.745.665-2.043 2.397-3.505 4.524-3.813l5.197-.756c.198-.029.367-.152.455-.33l2.324-4.71c.951-1.927 2.877-3.124 5.025-3.124 2.149 0 4.075 1.197 5.026 3.124l2.324 4.71c.088.178.257.301.453.329l5.199.757c2.127.309 3.86 1.771 4.524 3.814.663 2.043.12 4.245-1.419 5.744l-3.761 3.666c-.143.139-.207.339-.174.534l.888 5.177c.363 2.119-.491 4.219-2.229 5.482-1.738 1.262-4 1.424-5.901.426l-4.649-2.444c-.176-.092-.386-.094-.562 0l-4.649 2.444c-.825.434-1.72.649-2.611.649zm7.543-29.413c-.171 0-.404.059-.541.337l-2.324 4.71c-.817 1.655-2.396 2.801-4.222 3.065l-5.196.755c-.307.045-.435.249-.487.412s-.069.402.152.619l3.762 3.666c1.321 1.287 1.924 3.142 1.611 4.96l-.888 5.177c-.053.306.102.49.24.591.138.1.361.192.637.046l4.648-2.444c1.631-.857 3.581-.859 5.216 0l4.648 2.444c.275.146.497.054.637-.046.139-.101.293-.285.24-.592l-.888-5.176c-.312-1.818.29-3.673 1.611-4.96l3.761-3.666c.223-.217.206-.457.153-.62-.053-.162-.181-.366-.487-.411l-5.198-.756c-1.825-.264-3.402-1.41-4.22-3.064l-2.324-4.71c-.136-.279-.369-.337-.541-.337z"/><path d="m142.169 256h-51.91c-4.241 0-7.691-3.45-7.691-7.691 0-4.24 3.45-7.69 7.691-7.69h51.91c4.241 0 7.691 3.45 7.691 7.69 0 4.241-3.45 7.691-7.691 7.691zm-51.91-10.382c-1.484 0-2.691 1.207-2.691 2.69 0 1.484 1.207 2.691 2.691 2.691h51.91c1.484 0 2.691-1.207 2.691-2.691 0-1.483-1.207-2.69-2.691-2.69z"/><path d="m116.241 212.422c-3.827 0-6.94-3.113-6.94-6.94s3.113-6.94 6.94-6.94 6.941 3.113 6.941 6.94-3.114 6.94-6.941 6.94zm0-8.881c-1.07 0-1.94.87-1.94 1.94s.87 1.94 1.94 1.94 1.941-.87 1.941-1.94-.87-1.94-1.941-1.94z"/></svg>